<svg width="553" height="414" viewBox="0 0 553 414" fill="none" xmlns="http://www.w3.org/2000/svg">
<path fill-rule="evenodd" clip-rule="evenodd" d="M256.922 111.193C307.448 110.083 303.872 23.8976 349.768 4.86391C381.113 -8.13526 428.563 6.28029 447.909 31.9883C469.487 60.6627 443.461 100.559 447.678 134.974C450.561 158.494 455.685 182.24 468.834 202.736C490.968 237.239 567.117 258.569 550.702 295.566C533.094 335.25 459.374 314.993 413.743 326.896C390.321 333.006 364.291 335.077 345.528 349.088C323.064 365.863 326.295 415.645 297.157 413.958C262.581 411.956 265.953 346.135 231.543 342.489C193.644 338.473 173.603 397.556 135.45 396.824C107.387 396.286 102.154 356.588 81.3839 339.607C56.3189 319.115 1.67976 316.551 0.0488884 286.122C-1.8386 250.906 51.4225 233.877 74.1783 205.166C87.1232 188.834 105.179 172.765 105.786 152.716C106.91 115.592 64.5149 79.673 79.0284 44.9044C90.3212 17.8514 136.132 -2.15543 165.817 8.90591C211.079 25.7718 207.943 112.269 256.922 111.193Z" fill="#4477E8"/>
<path d="M350.218 233.27C360.748 179.848 337.462 130.152 298.208 122.27C258.954 114.389 218.596 151.307 208.066 204.729C197.536 258.152 220.822 307.848 260.076 315.729C299.33 323.611 339.688 286.693 350.218 233.27Z" fill="#E23823"/>
<path d="M263.544 128.528C263.544 128.528 265.069 118.149 276.753 118.149C288.436 118.149 294.103 131.426 296.74 139.216C299.378 147.006 306.178 154.344 315.038 158.681C323.898 163.018 330.595 167.683 329.462 177.508C329.462 177.508 348.419 192.307 312.297 195.04C276.176 197.774 258.434 175.103 260.618 163.429C262.803 151.754 248.708 135.928 263.544 128.528Z" fill="#3B2645"/>
<path d="M285.285 152.815C285.285 152.815 283.637 168.765 290.642 170.163C290.642 170.163 293.548 198.794 277.208 198.794C260.867 198.794 262.536 171.026 262.536 171.026C262.536 171.026 269.501 169.197 268.945 153.802C268.388 138.407 285.512 142.107 285.285 152.815Z" fill="#D9C6BE"/>
<path d="M280.544 154.858C281.925 149.616 274.816 148.548 270.035 148.404C269.355 149.945 268.964 151.939 269.046 154.426C269.149 156.605 269.046 158.804 268.778 160.983C271.498 161.188 278.875 161.168 280.544 154.858Z" fill="#86543D"/>
<path d="M267.078 149.967C268.552 149.461 268.98 146.823 268.033 144.075C267.086 141.327 265.123 139.509 263.648 140.014C262.174 140.52 261.746 143.158 262.693 145.906C263.641 148.654 265.604 150.472 267.078 149.967Z" fill="#86543D"/>
<path d="M291.62 145.881C292.567 143.133 292.139 140.496 290.665 139.99C289.191 139.484 287.227 141.302 286.28 144.051C285.333 146.799 285.761 149.436 287.235 149.942C288.71 150.448 290.673 148.63 291.62 145.881Z" fill="#86543D"/>
<path d="M264.43 131.098C264.43 131.098 263.297 158.619 276.361 158.681C286.519 158.722 289.425 146.369 289.59 132.454C289.754 118.539 264.595 120.41 264.43 131.098Z" fill="#D9C6BE"/>
<path d="M277.392 150.624C275.208 150.624 273.291 149.308 273.271 149.288C273.168 149.226 273.147 149.103 273.23 149C273.291 148.897 273.415 148.877 273.518 148.959C273.559 148.979 277.268 151.508 280.009 149.349C280.091 149.288 280.236 149.288 280.297 149.391C280.359 149.493 280.359 149.617 280.256 149.678C279.329 150.377 278.34 150.624 277.392 150.624Z" fill="#472938"/>
<path d="M268.902 139.237C268.902 139.237 270.613 140.326 273.497 139.442C273.497 139.422 271.045 141.929 268.902 139.237Z" fill="#472938"/>
<path d="M285.304 139.463C285.304 139.463 283.594 140.552 280.709 139.668C280.709 139.668 283.161 142.176 285.304 139.463Z" fill="#472938"/>
<path d="M267.913 135.887C267.913 135.887 270.077 133.502 273.229 134.242C274.837 134.612 274.218 132.639 271.313 132.762C268.408 132.886 267.913 135.887 267.913 135.887Z" fill="#472938"/>
<path d="M286.458 135.887C286.458 135.887 284.295 133.502 281.142 134.242C279.535 134.612 280.153 132.639 283.058 132.762C285.964 132.886 286.458 135.887 286.458 135.887Z" fill="#472938"/>
<path d="M276.897 146.02C276.279 146.02 274.96 145.568 274.507 145.115C274.342 144.951 274.28 144.786 274.301 144.622C274.342 144.375 274.527 143.594 274.795 142.608C275.146 141.19 275.599 139.443 275.743 138.579C275.887 137.757 275.743 136.894 275.352 136.154C275.29 136.051 275.331 135.928 275.434 135.866C275.537 135.804 275.661 135.846 275.722 135.948C276.155 136.771 276.32 137.716 276.155 138.641C276.011 139.525 275.558 141.292 275.207 142.711C274.96 143.656 274.754 144.478 274.733 144.684C274.733 144.704 274.754 144.745 274.816 144.828C275.249 145.259 276.609 145.67 277 145.609C277.515 145.526 278.587 145.033 278.958 144.602C279.04 144.519 279.164 144.519 279.246 144.581C279.328 144.663 279.328 144.787 279.267 144.869C278.813 145.362 277.659 145.917 277.062 145.999C276.979 146.02 276.938 146.02 276.897 146.02Z" fill="#472938"/>
<path d="M264.616 138.148C264.616 138.148 265.441 131.591 267.481 129.186C267.481 129.186 270.901 127.665 276.341 130.892C281.781 134.119 285.593 136.832 290.641 136.031C290.641 136.031 291.115 120.389 278.072 121.232C265.029 122.075 262.35 128.878 264.616 138.148Z" fill="#3B2645"/>
<path d="M350.809 234.173C350.603 233.844 349.985 234.399 349.985 234.399C349.985 234.399 349.346 233.68 347.615 234.194C345.884 234.708 340.753 239.106 340.753 239.106C338.445 239.065 334.674 241.326 334.674 241.326C334.674 241.326 331.831 240.154 329.255 236.29C326.679 232.426 323.877 230.535 323.877 230.535C323.877 230.535 317.84 206.323 313.76 191.216C309.618 192.963 304.24 199.848 300.407 205.398C300.49 208.008 300.572 209.673 300.572 209.673C300.572 209.673 314.007 245.231 315.738 246.3C317.469 247.369 337.23 249.753 337.436 249.609C337.642 249.465 339.455 249.938 340.197 249.609C340.939 249.28 341.845 249.815 342.752 249.198C343.659 248.582 345.225 249.527 345.863 248.931C346.502 248.335 347.615 248.582 348.357 248.232C349.098 247.883 353.24 242.045 353.323 240.997C353.405 239.949 351.015 234.502 350.809 234.173Z" fill="#D9C6BE"/>
<path d="M303.869 198.307C303.869 198.307 310.896 210.269 305.332 222.047L300.552 209.632L303.869 198.307Z" fill="#86543D"/>
<path d="M313.739 191.175C312.276 185.748 311.06 181.494 310.463 179.952C308.196 174.033 304.013 173.766 304.013 173.766C299.892 173.827 300.098 195.861 300.387 205.357C304.219 199.807 309.597 192.942 313.739 191.175Z" fill="#132945"/>
<path d="M319.303 231.789C319.22 231.789 319.138 231.727 319.097 231.645C319.076 231.542 319.138 231.419 319.241 231.398L323.28 230.33C323.383 230.309 323.506 230.371 323.527 230.474C323.548 230.576 323.486 230.7 323.383 230.72L319.344 231.789C319.344 231.789 319.323 231.789 319.303 231.789Z" fill="#472938"/>
<path d="M339.291 245.786C339.188 245.786 339.084 245.704 339.084 245.581C338.981 243.073 336.014 242.97 335.891 242.97C335.767 242.97 335.685 242.868 335.685 242.765C335.685 242.642 335.788 242.559 335.891 242.559C335.932 242.559 339.352 242.683 339.476 245.56C339.517 245.683 339.414 245.786 339.291 245.786C339.311 245.786 339.311 245.786 339.291 245.786Z" fill="#472938"/>
<path d="M338.384 247.657C338.363 247.657 338.322 247.657 338.301 247.636C338.198 247.595 338.157 247.472 338.198 247.369C338.446 246.834 340.671 242.025 341.598 241.408C342.361 240.894 343.288 241.059 343.659 241.388C343.906 241.593 343.824 241.799 343.803 241.86C343.7 242.086 342.505 245.046 341.907 246.567C341.866 246.67 341.743 246.732 341.64 246.69C341.537 246.649 341.475 246.526 341.516 246.423C341.578 246.238 343.185 242.251 343.412 241.737C343.37 241.696 343.267 241.614 343.061 241.573C342.897 241.531 342.361 241.429 341.825 241.778C341.124 242.251 339.229 246.115 338.549 247.574C338.528 247.615 338.466 247.657 338.384 247.657Z" fill="#472938"/>
<path d="M344.895 246.115C344.772 246.115 344.689 246.033 344.689 245.909C344.689 245.868 344.689 245.868 345.266 243.834C345.74 242.169 346.503 239.456 346.585 239.024C346.461 238.901 345.884 238.654 345.493 238.777C345.184 238.88 344.236 240.278 343.535 241.511C343.474 241.614 343.35 241.634 343.247 241.593C343.144 241.531 343.123 241.408 343.164 241.305C343.535 240.668 344.772 238.572 345.349 238.366C345.843 238.202 346.482 238.428 346.77 238.633C346.915 238.736 346.997 238.859 346.997 238.962C346.997 239.086 346.709 240.134 345.658 243.916C345.39 244.882 345.122 245.807 345.101 245.909C345.101 246.033 344.998 246.115 344.895 246.115Z" fill="#472938"/>
<path d="M347.801 245.683C347.78 245.683 347.78 245.683 347.76 245.683C347.657 245.663 347.574 245.54 347.595 245.437C348.316 242.23 349.367 237.339 349.387 236.804C349.305 236.681 348.934 236.475 348.295 236.475C347.945 236.475 347.059 237.647 346.461 238.736C346.4 238.839 346.276 238.88 346.173 238.818C346.07 238.757 346.029 238.633 346.091 238.531C346.42 237.955 347.533 236.064 348.295 236.064C349.017 236.064 349.614 236.311 349.779 236.66C349.82 236.742 349.923 236.969 347.986 245.519C347.986 245.622 347.904 245.683 347.801 245.683Z" fill="#472938"/>
<path d="M349.346 236.681C349.263 236.681 349.181 236.619 349.14 236.537C348.81 235.489 349.778 234.317 349.82 234.276C349.902 234.194 350.026 234.173 350.108 234.255C350.19 234.338 350.211 234.461 350.129 234.543C350.129 234.564 349.263 235.591 349.531 236.434C349.572 236.537 349.511 236.66 349.387 236.701C349.387 236.681 349.366 236.681 349.346 236.681Z" fill="#472938"/>
<path d="M348.254 243.69C348.213 243.69 348.172 243.669 348.151 243.649C348.048 243.587 348.028 243.464 348.089 243.361L349.779 240.812L349.285 237.729C349.264 237.626 349.346 237.503 349.449 237.503C349.552 237.482 349.676 237.565 349.676 237.667L350.212 240.915L348.44 243.607C348.378 243.649 348.316 243.69 348.254 243.69Z" fill="#472938"/>
<path d="M205.354 237.606C205.539 237.277 206.178 237.791 206.178 237.791C206.178 237.791 206.796 237.051 208.547 237.503C210.299 237.955 215.595 242.128 215.595 242.128C217.882 242.004 221.776 244.101 221.776 244.101C221.776 244.101 224.579 242.806 227.01 238.839C229.442 234.872 232.162 232.858 232.162 232.858C232.162 232.858 237.21 208.44 240.692 193.148C244.896 194.731 250.542 201.39 254.601 206.775C254.622 209.385 254.622 211.05 254.622 211.05C254.622 211.05 242.629 247.102 240.94 248.253C239.25 249.404 219.592 252.548 219.407 252.425C219.221 252.302 217.408 252.836 216.645 252.528C215.883 252.22 215.018 252.816 214.07 252.22C213.122 251.624 211.618 252.631 210.938 252.076C210.258 251.521 209.186 251.788 208.403 251.48C207.62 251.171 203.272 245.499 203.149 244.45C203.025 243.402 205.168 237.935 205.354 237.606Z" fill="#D9C6BE"/>
<path d="M250.831 199.91C250.831 199.91 244.299 212.16 250.315 223.691L254.581 211.091L250.831 199.91Z" fill="#86543D"/>
<path d="M240.672 193.169C241.908 187.701 242.959 183.406 243.495 181.823C245.514 175.821 249.697 175.369 249.697 175.369C253.818 175.266 254.478 197.3 254.581 206.796C250.521 201.431 244.875 194.772 240.672 193.169Z" fill="#132945"/>
<path d="M236.736 233.968C236.716 233.968 236.716 233.968 236.695 233.968L232.615 233.064C232.512 233.043 232.43 232.92 232.45 232.817C232.471 232.714 232.595 232.632 232.698 232.653L236.778 233.557C236.881 233.578 236.963 233.701 236.942 233.804C236.922 233.906 236.819 233.968 236.736 233.968Z" fill="#472938"/>
<path d="M217.305 248.746C217.181 248.746 217.099 248.643 217.099 248.54C217.119 245.642 220.519 245.396 220.56 245.396C220.663 245.396 220.766 245.478 220.787 245.581C220.787 245.704 220.705 245.786 220.602 245.807C220.478 245.807 217.531 246.033 217.531 248.54C217.511 248.664 217.428 248.746 217.305 248.746Z" fill="#472938"/>
<path d="M218.315 250.575C218.232 250.575 218.17 250.534 218.129 250.472C217.408 249.054 215.347 245.252 214.626 244.8C214.07 244.471 213.534 244.594 213.369 244.635C213.184 244.697 213.081 244.779 213.04 244.82C213.287 245.334 215.038 249.26 215.121 249.445C215.162 249.548 215.121 249.671 215.018 249.712C214.915 249.753 214.791 249.712 214.75 249.609C214.07 248.109 212.772 245.19 212.669 244.964C212.586 244.82 212.648 244.635 212.792 244.491C213.143 244.162 214.07 243.957 214.853 244.43C215.821 245.005 218.232 249.733 218.5 250.267C218.541 250.37 218.521 250.493 218.418 250.534C218.377 250.575 218.335 250.575 218.315 250.575Z" fill="#472938"/>
<path d="M211.72 249.281C211.617 249.281 211.535 249.219 211.514 249.116C211.494 249.013 211.226 248.191 210.917 247.225C209.68 243.423 209.351 242.354 209.351 242.231C209.351 242.107 209.412 242.004 209.557 241.902C209.845 241.676 210.463 241.429 210.978 241.573C211.576 241.737 212.895 243.793 213.286 244.409C213.348 244.512 213.307 244.635 213.224 244.697C213.121 244.759 212.998 244.718 212.936 244.635C212.174 243.423 211.164 242.066 210.875 241.984C210.463 241.861 209.907 242.148 209.783 242.272C209.886 242.642 210.772 245.437 211.329 247.122C211.947 249.034 211.947 249.034 211.947 249.075C211.947 249.178 211.844 249.281 211.72 249.281C211.741 249.281 211.741 249.281 211.72 249.281Z" fill="#472938"/>
<path d="M208.815 248.993C208.732 248.993 208.65 248.931 208.609 248.849C206.342 240.36 206.445 240.134 206.466 240.052C206.61 239.682 207.187 239.415 207.929 239.394H207.949C208.712 239.394 209.886 241.223 210.237 241.778C210.298 241.881 210.257 242.004 210.175 242.066C210.072 242.128 209.948 242.087 209.886 242.004C209.248 240.956 208.32 239.805 207.97 239.805C207.352 239.826 206.981 240.052 206.899 240.175C206.94 240.709 208.197 245.56 209.042 248.725C209.062 248.828 209 248.952 208.897 248.972C208.835 248.972 208.815 248.993 208.815 248.993Z" fill="#472938"/>
<path d="M206.92 240.072C206.899 240.072 206.879 240.072 206.858 240.072C206.755 240.052 206.673 239.928 206.714 239.826C206.941 238.962 206.055 237.976 206.034 237.955C205.951 237.873 205.972 237.75 206.055 237.668C206.137 237.585 206.261 237.606 206.343 237.688C206.384 237.729 207.394 238.86 207.105 239.928C207.085 240.011 207.002 240.072 206.92 240.072Z" fill="#472938"/>
<path d="M208.279 246.999C208.217 246.999 208.156 246.979 208.114 246.917L206.239 244.307L206.631 241.038C206.651 240.936 206.754 240.854 206.857 240.854C206.96 240.874 207.043 240.977 207.043 241.08L206.672 244.183L208.465 246.67C208.526 246.752 208.506 246.896 208.423 246.958C208.362 246.999 208.32 246.999 208.279 246.999Z" fill="#472938"/>
<path d="M290.744 170.169L304.014 173.766C304.014 173.766 302.406 195.162 305.147 199.581C307.888 204 306.363 214.051 303.045 219.046C303.045 219.046 297.729 236.105 299.171 240.113C300.614 244.121 305.456 252.98 305.456 252.98C305.456 252.98 283.841 263.915 252.561 254.193C252.561 254.193 258.764 241.162 257.795 236.167C256.827 231.172 250.13 217.257 250.212 210.68C250.295 204.103 252.396 186.55 249.326 175.451L262.596 171.032C262.596 171.032 262.823 197.094 277.927 197.094C293.031 197.094 290.744 170.169 290.744 170.169Z" fill="#132945"/>
<path d="M303.065 219.046C303.065 219.046 301.417 222.334 290.949 223.711C290.949 223.711 301.025 224.472 300.016 230.515L303.065 219.046Z" fill="#331C32"/>
<path d="M251.654 218.121C251.654 218.121 254.127 222.745 265.316 223.793C265.316 223.793 253.055 221.944 255.343 228.644L251.654 218.121Z" fill="#331C32"/>
<path d="M250.274 211.831C250.171 211.831 250.068 211.749 250.068 211.646C250.048 211.297 250.027 210.988 250.048 210.68C250.068 209.2 250.192 207.186 250.315 204.843C250.501 201.636 250.728 197.649 250.789 193.559C250.789 193.435 250.872 193.353 250.995 193.353C251.119 193.353 251.202 193.456 251.202 193.559C251.14 197.649 250.913 201.657 250.728 204.863C250.583 207.207 250.48 209.221 250.46 210.701C250.46 210.988 250.46 211.297 250.48 211.626C250.48 211.708 250.398 211.811 250.274 211.831Z" fill="#472938"/>
<path d="M305.147 199.787C305.085 199.787 305.003 199.746 304.962 199.684C304.055 198.225 303.519 194.874 303.375 189.736C303.375 189.612 303.457 189.53 303.581 189.53C303.684 189.53 303.787 189.612 303.787 189.736C303.931 194.813 304.447 198.101 305.312 199.478C305.374 199.581 305.333 199.704 305.25 199.766C305.23 199.766 305.188 199.787 305.147 199.787Z" fill="#472938"/>
<path d="M253.282 252.672C253.282 252.672 264.925 257.091 278.545 256.618C292.165 256.145 319.427 246.321 332.161 248.335C344.895 250.349 344.071 255.755 343.638 258.242C343.206 260.729 316.769 298.034 293.546 298.034H257.96C257.96 298.034 214.235 270.553 212.813 262.62C211.391 254.686 212.421 249.938 224.62 249.712C236.818 249.486 250.006 251.603 253.282 252.672Z" fill="#3B2645"/>
<path d="M278.092 264.778C278.092 264.778 295.483 257.563 310.01 255.076C310.01 255.076 319.365 269.546 316.624 281.776C316.604 281.776 283.346 274.5 278.092 264.778Z" fill="#D9C6BE"/>
<path d="M278.092 264.778C278.092 264.778 320.169 270.266 316.604 281.776C313.039 293.286 278.092 264.778 278.092 264.778Z" fill="#86543D"/>
<path d="M297.008 285.599C297.008 285.599 253.88 289.299 244.422 291.231C234.964 293.163 225.383 292.299 219.531 294.334C213.679 296.369 210.443 297.931 209.743 298.013C209.042 298.096 207.435 289.031 210.382 285.825C210.382 285.825 209.475 282.557 213.596 280.029C217.717 277.501 224.558 280.83 227.093 280.029C229.627 279.227 231.441 278.487 234.14 279.063C236.839 279.638 243.433 281.262 243.433 281.262C243.433 281.262 277.391 259.742 297.008 285.599Z" fill="#D9C6BE"/>
<path d="M243.454 281.262L269.067 288.209L297.008 285.599C297.008 285.599 284.274 272.527 266.697 273.739C249.121 274.952 243.454 281.262 243.454 281.262Z" fill="#86543D"/>
<path d="M252.376 255.426C252.376 255.426 265.605 258.098 284.727 268.087C303.849 278.076 319.675 273.986 325.259 275.918C330.843 277.85 341.434 276.35 343.165 277.85C344.896 279.351 346.029 281.982 344.999 283.112C344.999 283.112 349.615 293.677 349.182 294.375C348.749 295.074 347.142 295.013 346.38 294.848C345.617 294.684 338.9 291.354 331.173 289.977C323.445 288.6 302.139 285.64 285.16 284.777C268.181 283.914 243.454 282.208 243.454 282.208C243.454 282.208 244.031 261.428 252.376 255.426Z" fill="#D9C6BE"/>
<path d="M343.597 283.544C342.938 283.544 342.052 283.42 340.919 283.03C340.816 282.989 340.754 282.865 340.795 282.762C340.836 282.66 340.96 282.598 341.063 282.639C343.618 283.544 344.854 282.927 344.875 282.927C344.978 282.865 345.102 282.906 345.143 283.009C345.205 283.112 345.163 283.235 345.06 283.276C345.04 283.276 344.566 283.544 343.597 283.544Z" fill="#472938"/>
<path d="M212.462 286.462C211.02 286.462 210.319 286.01 210.278 285.989C210.175 285.928 210.155 285.804 210.216 285.702C210.278 285.599 210.402 285.578 210.505 285.64C210.505 285.64 211.247 286.092 212.689 286.03C214.193 285.989 215.821 285.249 215.842 285.249C215.945 285.208 216.068 285.249 216.11 285.352C216.151 285.455 216.11 285.578 216.007 285.619C215.945 285.66 214.276 286.38 212.71 286.441C212.627 286.462 212.545 286.462 212.462 286.462Z" fill="#472938"/>
<path d="M177.802 286V253.456H120.586V229.936L172.33 151.6H201.226V230.032H212.554V253.456H201.226V286H177.802ZM147.754 229.936L177.802 230.032L177.706 183.568L147.754 229.936Z" fill="#132945"/>
<path d="M397.802 286V253.456H340.586V229.936L392.33 151.6H421.226V230.032H432.554V253.456H421.226V286H397.802ZM367.754 229.936L397.802 230.032L397.706 183.568L367.754 229.936Z" fill="#132945"/>
</svg>
