<svg width="388" height="282" viewBox="0 0 388 282" fill="none" xmlns="http://www.w3.org/2000/svg">
<path fill-rule="evenodd" clip-rule="evenodd" d="M388 202.8C388 197.94 384.358 194 379.865 194H24.0184C19.5253 194 15.8829 197.94 15.8829 202.8C15.8829 207.66 19.5253 211.6 24.0184 211.6H71.7167C76.2098 211.6 79.8521 215.54 79.8521 220.4C79.8521 225.26 76.2098 229.2 71.7167 229.2H62.1755C57.6824 229.2 54.04 233.14 54.04 238C54.04 242.86 57.6824 246.8 62.1755 246.8H90.4909C94.984 246.8 98.6263 250.74 98.6263 255.6C98.6263 260.46 94.984 264.4 90.4909 264.4H77.8206C73.3275 264.4 69.6852 268.34 69.6852 273.2C69.6852 278.06 73.3275 282 77.8206 282H271.613C276.106 282 279.749 278.06 279.749 273.2C279.749 268.34 276.106 264.4 271.613 264.4H228.732C224.239 264.4 220.597 260.46 220.597 255.6C220.597 250.74 224.239 246.8 228.732 246.8H354.528C359.021 246.8 362.663 242.86 362.663 238C362.663 233.14 359.021 229.2 354.528 229.2H312.441C307.948 229.2 304.306 225.26 304.306 220.4C304.306 215.54 307.948 211.6 312.441 211.6H379.865C384.358 211.6 388 207.66 388 202.8ZM124.718 264.4C120.225 264.4 116.583 260.46 116.583 255.6C116.583 250.74 120.225 246.8 124.718 246.8H151.445C155.938 246.8 159.581 250.74 159.581 255.6C159.581 260.46 155.938 264.4 151.445 264.4H124.718Z" fill="#E4ECFE"/>
<path d="M289.849 273.2C289.849 268.34 293.492 264.4 297.985 264.4H336.705C341.198 264.4 344.84 268.34 344.84 273.2C344.84 278.06 341.198 282 336.705 282H297.985C293.492 282 289.849 278.06 289.849 273.2Z" fill="#E4ECFE"/>
<path d="M35.9125 238C35.9125 233.14 32.2702 229.2 27.7771 229.2H8.13549C3.64238 229.2 0 233.14 0 238C0 242.86 3.64238 246.8 8.13548 246.8H27.7771C32.2702 246.8 35.9125 242.86 35.9125 238Z" fill="#E4ECFE"/>
<rect x="94.9353" y="97.7563" width="97.8859" height="116.087" fill="#5388FE"/>
<path d="M94.9354 97.7563H192.821L165.903 66.0963H68.0167L94.9354 97.7563Z" fill="#2D56B2"/>
<path d="M94.9352 97.7563V136.012H59.4516L94.9352 97.7563Z" fill="#2D56B2"/>
<rect x="192.821" y="97.7563" width="112.569" height="116.087" fill="#2D56B2"/>
<path d="M192.821 97.7563H305.39L329.861 147.885H217.293L192.821 97.7563Z" fill="#88AAF4"/>
<path d="M192.821 97.7563H305.39L329.861 74.0113H217.293L192.821 97.7563Z" fill="#B7CEFF"/>
<rect x="109.516" y="120.072" width="50.0645" height="13.494" fill="#2D56B2"/>
<path d="M75.0967 19.2747L95.3752 39.864" stroke="#2D56B2" stroke-width="2" stroke-linecap="round"/>
<path d="M115.135 2L120.097 28.1398" stroke="#2D56B2" stroke-width="2" stroke-linecap="round"/>
<path d="M314.595 19.2747L294.316 39.864" stroke="#2D56B2" stroke-width="2" stroke-linecap="round"/>
<path d="M274.556 2L269.595 28.1398" stroke="#2D56B2" stroke-width="2" stroke-linecap="round"/>
</svg>
