<svg width="310" height="539" viewBox="0 0 310 539" fill="none" xmlns="http://www.w3.org/2000/svg">
<rect width="310" height="539" rx="40" fill="#4477E8"/>
<g clip-path="url(#clip0_323_3550)">
<path d="M185.833 118.166C185.833 118.166 196.52 118.244 200.039 136.57C203.584 154.896 206.712 179.288 210.883 188.451C215.054 197.614 222.509 214.014 225.976 230.622C229.443 247.23 230.877 257.721 231.685 261.183C232.493 264.645 235.855 279.17 236.142 283.518C236.403 287.865 234.995 298.147 234.604 299.943C234.187 301.714 230.824 310.955 230.433 311.345C230.016 311.762 228.14 309.419 228.296 307.987C228.452 306.555 229.677 298.928 229.677 298.928L227.931 287.474C227.931 287.474 226.706 297.262 225.168 297.965C223.63 298.668 222.17 298.225 221.805 298.017C221.44 297.809 222.066 289.245 220.319 282.372C218.573 275.5 222.196 268.836 220.163 262.719C218.13 256.601 201.603 222.474 198.553 211.385C195.504 200.269 184.686 170.75 181.427 162.888C178.143 155.053 179.342 117.776 185.833 118.166Z" fill="#FFEDE5"/>
<path d="M185.78 155.886C184.816 152.528 182.548 152.658 179.941 154.272C180.228 158.072 180.723 161.196 181.427 162.888C182.287 164.919 183.643 168.433 185.233 172.702C186.302 169.214 187.709 162.654 185.78 155.886Z" fill="#DD825C"/>
<path d="M200.326 197.953C200.222 197.953 200.117 197.901 200.091 197.796C200.039 197.666 200.117 197.51 200.248 197.458L207.051 194.985C207.182 194.933 207.338 195.011 207.39 195.141C207.442 195.271 207.364 195.428 207.234 195.48L200.43 197.953C200.378 197.953 200.352 197.953 200.326 197.953Z" fill="#472938"/>
<path d="M121.317 118.661C121.317 118.661 108.752 120.796 105.155 136.597C101.01 154.793 98.4819 179.314 94.3112 188.477C90.1404 197.64 82.6853 214.04 79.2183 230.648C75.7514 247.256 74.2917 257.721 73.4836 261.183C72.6755 264.645 69.3128 279.171 69.0261 283.518C68.7654 287.865 70.1731 298.148 70.5641 299.944C70.9551 301.74 74.3438 310.955 74.7348 311.346C75.1519 311.762 77.0287 309.419 76.8723 307.988C76.7159 306.556 75.4907 298.929 75.4907 298.929L77.2372 287.475C77.2372 287.475 78.4624 297.263 80.0003 297.965C81.5383 298.668 82.9981 298.226 83.363 298.018C83.7279 297.809 83.1023 289.245 84.8488 282.373C86.5953 275.5 82.972 268.836 85.0052 262.719C87.0385 256.602 103.565 222.474 106.641 211.385C109.691 200.27 120.509 170.75 123.767 162.889C127.051 155.053 127.807 118.245 121.317 118.661Z" fill="#FFEDE5"/>
<path d="M116.807 153.543C118.215 150.342 122.646 152.632 125.253 154.246C124.966 158.047 124.471 161.171 123.767 162.863C122.907 164.893 121.551 168.407 119.961 172.677C117.928 170.672 115.165 157.292 116.807 153.543Z" fill="#DD825C"/>
<path d="M104.92 197.953C104.868 197.953 104.842 197.953 104.79 197.927L99.1857 194.907C99.0554 194.829 99.0032 194.699 99.0814 194.569C99.1596 194.439 99.29 194.387 99.4203 194.465L105.025 197.485C105.155 197.563 105.207 197.693 105.129 197.823C105.103 197.901 104.999 197.953 104.92 197.953Z" fill="#472938"/>
<path d="M193.627 491.87H225.585C226.367 491.87 226.993 491.245 226.993 490.464C226.993 489.501 226.941 488.147 226.81 486.82H193.053C192.871 488.173 192.688 489.423 192.506 490.568C192.402 491.245 192.949 491.87 193.627 491.87Z" fill="#3B2645"/>
<path d="M225.35 481.9C223.63 480.806 218.182 476.173 216.409 464.198C216.409 464.198 216.409 464.198 216.409 464.172C216.409 464.146 216.409 464.094 216.383 464.068C216.253 463.313 215.315 459.695 208.459 459.721C200.821 459.773 199.726 468.337 199.283 468.233C198.84 468.129 197.745 462.975 195.816 462.923C195.008 470.914 193.992 480.025 193.079 486.82H226.836C226.602 484.633 226.211 482.42 225.35 481.9Z" fill="#E23823"/>
<path d="M199.257 468.233C199.727 468.337 200.795 459.773 208.433 459.721C215.289 459.669 216.227 463.287 216.357 464.068C216.253 463.365 216.149 462.636 216.071 461.856C215.471 455.816 215.654 444.597 215.654 444.597L197.485 445.065C197.485 445.065 196.755 453.135 195.764 462.897C197.746 462.949 198.814 468.129 199.257 468.233Z" fill="#FFEDE5"/>
<path d="M225.351 481.9C225.351 481.978 225.324 482.03 225.324 482.03C225.324 482.03 218.521 482.03 209.71 482.03C200.9 482.03 199.231 468.233 199.231 468.233C198.762 468.129 197.693 462.975 195.764 462.923C194.956 470.914 193.94 480.025 193.027 486.819H226.784C226.602 484.633 226.211 482.472 225.351 481.9Z" fill="#E23823"/>
<path d="M209.736 482.029C218.547 482.029 225.351 482.029 225.351 482.029C225.351 482.029 225.351 481.977 225.377 481.899C225.377 481.899 225.377 481.899 225.351 481.873C223.63 480.78 218.182 476.146 216.41 464.172C216.41 464.172 216.41 464.172 216.41 464.146C216.41 464.12 216.41 464.068 216.383 464.042C216.253 463.287 215.315 459.668 208.459 459.694C200.821 459.747 199.727 468.311 199.284 468.207C199.257 468.233 200.926 482.029 209.736 482.029Z" fill="#543753"/>
<path d="M116.051 491.87H84.0929C83.3109 491.87 82.6853 491.245 82.6853 490.464C82.6853 489.501 82.7374 488.147 82.8678 486.82H116.625C116.807 488.173 116.99 489.423 117.172 490.568C117.276 491.245 116.755 491.87 116.051 491.87Z" fill="#3B2645"/>
<path d="M84.3276 481.9C86.048 480.806 91.496 476.173 93.2686 464.198C93.2686 464.198 93.2686 464.198 93.2686 464.172C93.2686 464.146 93.2686 464.094 93.2946 464.068C93.425 463.313 94.3634 459.695 101.219 459.721C108.857 459.773 109.951 468.337 110.395 468.233C110.838 468.129 111.933 462.975 113.862 462.923C114.67 470.914 115.686 480.025 116.599 486.82H82.8678C83.0763 484.633 83.4934 482.42 84.3276 481.9Z" fill="#E23823"/>
<path d="M110.421 468.233C109.951 468.337 108.883 459.773 101.245 459.721C94.3894 459.669 93.451 463.287 93.3207 464.068C93.4249 463.365 93.5292 462.636 93.6074 461.856C94.207 455.816 94.0245 444.597 94.0245 444.597L112.193 445.065C112.193 445.065 112.923 453.135 113.914 462.897C111.933 462.949 110.864 468.129 110.421 468.233Z" fill="#FFEDE5"/>
<path d="M84.3276 481.9C84.3276 481.978 84.3536 482.03 84.3536 482.03C84.3536 482.03 91.1571 482.03 99.9678 482.03C108.778 482.03 110.447 468.233 110.447 468.233C110.916 468.129 111.985 462.975 113.914 462.923C114.722 470.914 115.738 480.025 116.651 486.819H82.8678C83.0763 484.633 83.4673 482.472 84.3276 481.9Z" fill="#E23823"/>
<path d="M99.9418 482.029C91.1311 482.029 84.3276 482.029 84.3276 482.029C84.3276 482.029 84.3276 481.977 84.3015 481.899C84.3015 481.899 84.3015 481.899 84.3276 481.873C86.048 480.78 91.496 476.146 93.2686 464.172C93.2686 464.172 93.2686 464.172 93.2686 464.146C93.2686 464.12 93.2686 464.068 93.2947 464.042C93.425 463.287 94.3634 459.668 101.219 459.694C108.857 459.747 109.952 468.311 110.395 468.207C110.421 468.233 108.752 482.029 99.9418 482.029Z" fill="#543753"/>
<path d="M210.596 364.13C208.355 354.888 208.563 328.605 206.321 292.348C204.783 267.578 197.354 248.504 192.793 238.908C151.007 251.388 123.976 243.753 114.383 239.924C96.2141 276.654 100.489 319.458 101.063 335.058C101.662 351.697 97.3871 367.604 93.0079 389.822C88.6286 412.016 93.0079 445.862 93.0079 445.862C101.48 448.627 112.48 445.484 112.48 445.484C112.063 428.277 117.172 411.992 121.864 391.831C126.556 371.646 123.689 358.363 129.815 343.378C135.94 328.393 151.111 278.261 151.111 278.261H157.628C160.078 299.723 171.235 323.405 179.681 344.607C188.127 365.808 184.295 378.028 190.681 403.436C197.068 428.844 196.39 445.46 196.39 445.46C203.949 448.415 216.566 444.987 216.566 444.987C216.566 444.987 216.905 426.457 217.113 405.729C217.322 385.024 212.838 373.371 210.596 364.13Z" fill="#E23823"/>
<path d="M192.766 238.931C190.655 234.488 189.169 232.053 189.169 232.053L118.319 232.668C116.885 235.055 115.582 237.49 114.357 239.948C123.975 243.777 150.981 251.411 192.766 238.931Z" fill="#3B2645"/>
<path d="M165.865 96.092L166.96 111.841C167.143 114.314 169.045 116.292 171.496 116.553L185.859 118.167C185.859 118.167 191.098 155.99 182.261 171.609C173.425 187.228 178.143 206.179 189.169 232.054C189.169 232.054 143.891 242.232 118.319 232.731C118.319 232.731 129.606 206.804 126.739 188.061C123.871 169.318 116.39 166.585 116.807 153.569C117.224 140.554 121.291 118.661 121.291 118.661L135.992 115.876C137.478 115.59 138.599 114.418 138.808 112.934L140.893 98.4088L165.865 96.092Z" fill="#FFEDE5"/>
<path d="M140.919 98.4088C140.919 98.4088 148.14 118.167 166.569 106.348L165.865 96.092L140.919 98.4088Z" fill="#DD825C"/>
<path d="M182.235 171.609C183.721 168.98 184.79 165.752 185.572 162.16C185.885 160.338 186.302 155.834 184.581 148.467C182.287 138.732 182.887 117.828 182.887 117.828L173.868 116.813C173.868 116.813 172.512 147.843 152.258 147.843C132.004 147.843 132.499 116.527 132.499 116.527L124.705 118.011C124.705 118.011 126.087 149.925 116.833 153.544C116.416 166.585 123.897 169.293 126.765 188.035C126.947 189.259 127.077 190.508 127.156 191.784C127.156 191.784 145.846 199.853 177.674 191.185C177.465 184.052 178.847 177.597 182.235 171.609Z" fill="#E23823"/>
<path d="M127.13 191.809C127.13 191.809 145.82 199.879 177.648 191.21C177.595 189.44 177.648 187.696 177.804 186.004C155.204 192.122 133.985 188.607 126.556 186.993C126.608 187.332 126.66 187.696 126.739 188.061C126.921 189.284 127.051 190.534 127.13 191.809Z" fill="#3B2645"/>
<path d="M141.076 179.002C136.644 179.002 133.907 177.805 133.777 177.753C133.646 177.701 133.594 177.544 133.646 177.414C133.699 177.284 133.855 177.232 133.985 177.284C134.011 177.31 137.53 178.82 142.9 178.429C144.881 178.273 146.393 177.961 147.879 177.649C150.46 177.102 152.884 176.581 156.898 177.284C161.929 178.169 168.185 179.028 172.017 177.727C172.148 177.675 172.304 177.753 172.33 177.883C172.382 178.013 172.304 178.169 172.174 178.195C168.264 179.523 161.903 178.664 156.82 177.753C152.91 177.076 150.642 177.544 148.009 178.117C146.498 178.429 144.96 178.768 142.952 178.924C142.301 178.976 141.675 179.002 141.076 179.002Z" fill="#472938"/>
<path d="M152.649 233.798C153.182 233.798 153.614 233.087 153.614 232.21C153.614 231.333 153.182 230.622 152.649 230.622C152.117 230.622 151.685 231.333 151.685 232.21C151.685 233.087 152.117 233.798 152.649 233.798Z" fill="#DD825C"/>
<path d="M177.199 83.9207C178.513 80.2826 177.997 76.764 176.047 76.0616C174.097 75.3591 171.451 77.7389 170.137 81.3769C168.823 85.0149 169.339 88.5335 171.289 89.236C173.239 89.9384 175.885 87.5587 177.199 83.9207Z" fill="#FFEDE5"/>
<path d="M134.416 89.2451C136.366 88.5426 136.882 85.024 135.568 81.386C134.254 77.748 131.607 75.3682 129.657 76.0707C127.707 76.7731 127.191 80.2917 128.505 83.9297C129.819 87.5677 132.466 89.9475 134.416 89.2451Z" fill="#FFEDE5"/>
<path d="M133.229 85.1065C133.151 85.1065 133.073 85.0804 133.021 85.0023L130.466 81.384C130.388 81.2798 130.414 81.0976 130.518 81.0195C130.623 80.9414 130.779 80.9675 130.883 81.0716L133.438 84.69C133.516 84.7941 133.49 84.9763 133.386 85.0544C133.333 85.1065 133.281 85.1065 133.229 85.1065Z" fill="#472938"/>
<path d="M172.721 84.6118C172.669 84.6118 172.591 84.5858 172.564 84.5598C172.46 84.4556 172.46 84.2994 172.538 84.1953L175.249 81.0976C175.354 80.9934 175.51 80.9934 175.614 81.0715C175.719 81.1757 175.719 81.3319 175.64 81.436L172.929 84.5337C172.851 84.5858 172.773 84.6118 172.721 84.6118Z" fill="#472938"/>
<path d="M172.721 74.5897C172.721 92.3951 164.614 107.597 152.936 107.597C141.258 107.597 131.795 91.1717 131.795 73.3662C131.795 55.5607 141.232 43.1177 152.936 43.1177C164.64 43.1177 172.721 56.7842 172.721 74.5897Z" fill="#FFEDE5"/>
<path d="M153.906 51.4838C163.1 50.5331 169.943 43.8849 169.192 36.6345C168.44 29.3841 160.377 24.2772 151.184 25.2279C141.99 26.1785 135.147 32.8268 135.899 40.0772C136.651 47.3276 144.713 52.4345 153.906 51.4838Z" fill="#3B2645"/>
<g opacity="0.5">
<g opacity="0.5">
<path opacity="0.5" d="M153.9 51.4737C162.737 50.5626 169.384 44.3931 169.228 37.4948C166.543 32.4187 159.844 29.2168 152.415 29.9978C143.578 30.9089 136.931 37.0783 137.087 43.9766C139.798 49.0528 146.471 52.2546 153.9 51.4737Z" fill="#3B2645"/>
</g>
</g>
<path d="M172.643 77.2708C172.643 77.2708 164.744 68.264 165.761 57.9816C165.761 57.9816 158.879 70.3465 131.796 76.6201L129.449 76.1515C129.449 76.1515 120.847 36.1672 152.936 36.0631C172.252 35.985 173.659 48.2979 173.659 48.2979C173.659 48.2979 184.321 51.4737 176.031 76.0734L172.643 77.2708Z" fill="#3B2645"/>
<path d="M152.336 90.3906C151.007 90.3906 149.313 89.3233 149.078 88.8808C148.817 88.3601 149.547 85.4186 150.772 82.1907C152.076 78.7546 151.346 76.7501 151.346 76.7241C151.294 76.5939 151.372 76.4378 151.502 76.3857C151.633 76.3336 151.789 76.4117 151.841 76.5419C151.867 76.62 152.649 78.7025 151.268 82.3469C149.834 86.1475 149.469 88.3601 149.547 88.6205C149.678 88.8808 151.32 89.9481 152.493 89.8439C153.692 89.7398 155.491 88.7246 155.491 88.6985C155.621 88.6205 155.777 88.6725 155.829 88.8027C155.908 88.9328 155.855 89.089 155.725 89.1411C155.647 89.1931 153.822 90.2344 152.519 90.3385C152.467 90.3906 152.389 90.3906 152.336 90.3906Z" fill="#472938"/>
<path d="M152.649 96.3518C149.078 96.3518 146.654 93.9309 146.549 93.8268C146.445 93.7227 146.445 93.5665 146.549 93.4624C146.654 93.3582 146.81 93.3582 146.914 93.4624C146.94 93.4884 149.312 95.8312 152.649 95.8312C155.986 95.8312 158.358 93.4884 158.384 93.4624C158.488 93.3582 158.645 93.3582 158.749 93.4624C158.853 93.5665 158.853 93.7227 158.749 93.8268C158.645 93.9309 156.22 96.3518 152.649 96.3518Z" fill="#472938"/>
<path d="M162.294 80.1346C161.408 80.1086 160.73 79.3537 160.756 78.4686L160.808 77.3232C160.834 76.4381 161.59 75.7613 162.477 75.7873C163.363 75.8134 164.041 76.5683 164.014 77.4534L163.962 78.5987C163.936 79.4838 163.18 80.1867 162.294 80.1346Z" fill="#472938"/>
<path d="M143.734 80.1346C142.848 80.1867 142.092 79.4838 142.066 78.5988L142.014 77.4534C141.962 76.5683 142.665 75.8134 143.552 75.7874C144.438 75.7353 145.194 76.4382 145.22 77.3232L145.272 78.4686C145.298 79.3537 144.62 80.1086 143.734 80.1346Z" fill="#472938"/>
<path d="M167.247 71.7782C167.247 71.7782 165.24 69.9821 162.19 70.5287C159.14 71.0754 158.462 71.2316 158.254 70.9973C158.045 70.789 157.784 69.071 161.303 68.5243C164.822 67.9776 167.064 70.3986 167.247 71.7782Z" fill="#472938"/>
</g>
<defs>
<clipPath id="clip0_323_3550">
<rect width="171" height="489" fill="white" transform="translate(69 25)"/>
</clipPath>
</defs>
</svg>
