<svg width="255" height="327" viewBox="0 0 255 327" fill="none" xmlns="http://www.w3.org/2000/svg">
<g clip-path="url(#clip0_297_2187)">
<path d="M231.02 206.56C272.113 128.65 259.072 40.8333 201.892 10.4151C144.712 -20.0032 65.0452 18.4962 23.9519 96.4057C-17.1414 174.315 -4.10028 262.132 53.08 292.55C110.26 322.969 189.927 284.469 231.02 206.56Z" fill="#4477E8"/>
<path d="M98.2963 327C129.534 327 154.857 326.364 154.857 325.58C154.857 324.797 129.534 324.161 98.2963 324.161C67.0585 324.161 41.7354 324.797 41.7354 325.58C41.7354 326.364 67.0585 327 98.2963 327Z" fill="#3B2645"/>
<path d="M98.4405 325.58C135.891 325.58 166.25 295.273 166.25 257.886C166.25 220.5 135.891 190.192 98.4405 190.192C60.9903 190.192 30.6309 220.5 30.6309 257.886C30.6309 295.273 60.9903 325.58 98.4405 325.58Z" fill="#FA9E97"/>
<path d="M86.5864 305.188C81.2504 305.188 75.9145 304.58 70.6362 303.305C51.946 298.874 36.169 287.055 26.2182 269.994C16.2674 252.962 13.3543 232.744 17.9691 213.076C22.584 193.408 34.2077 176.665 50.7058 165.89C67.2039 155.114 86.5864 151.638 105.277 156.07C123.967 160.502 139.744 172.32 149.695 189.381C159.645 206.413 162.559 226.632 157.944 246.3C153.329 265.968 141.676 282.71 125.207 293.486C113.381 301.191 100.085 305.188 86.5864 305.188ZM89.413 154.796C56.734 154.796 26.6797 178.461 18.4883 213.22C13.9023 232.744 16.8154 252.788 26.6797 269.705C36.5439 286.621 52.2056 298.352 70.7516 302.755C76.001 304.001 81.3081 304.609 86.5864 304.609C99.9695 304.609 113.151 300.669 124.89 292.993C141.244 282.305 152.781 265.678 157.396 246.155C161.982 226.632 159.069 206.587 149.204 189.671C139.34 172.755 123.678 161.023 105.132 156.62C99.8829 155.375 94.6047 154.796 89.413 154.796Z" fill="white"/>
<path d="M63.8586 270.255C57.542 270.255 51.7734 268.662 46.8413 265.418C36.602 258.698 31.2373 245.808 31.7853 229.094C32.3333 212.409 38.6499 193.929 49.6102 177.042C60.5705 160.154 74.8477 146.859 89.846 139.617C104.844 132.376 118.775 132.086 129.015 138.777C139.254 145.497 144.619 158.387 144.071 175.101C143.523 191.785 137.206 210.266 126.246 227.153C115.285 244.041 101.008 257.336 86.0099 264.578C78.2223 268.372 70.7232 270.255 63.8586 270.255ZM49.8121 177.158L49.9851 177.273C39.0537 194.103 32.7659 212.525 32.2179 229.094C31.6987 245.663 36.977 258.408 47.072 265.041C67.9831 278.742 103.344 261.623 125.871 226.922C148.397 192.22 149.695 152.826 128.784 139.154C107.873 125.453 72.5114 142.572 49.9851 177.273L49.8121 177.158Z" fill="white"/>
<path d="M57.8298 244.272C53.6764 244.272 50.2729 243.027 48.2828 240.42C45.6292 237.002 45.7158 231.788 48.5424 225.763C51.3401 219.767 56.4453 213.684 62.9927 208.586L63.108 208.731L62.9927 208.586C76.52 198.042 91.9509 195.203 97.3734 202.242C102.796 209.281 96.1908 223.561 82.6635 234.105C74.126 240.68 64.8674 244.272 57.8298 244.272ZM63.2234 208.875C56.7338 213.916 51.6574 219.97 48.8885 225.908C46.1484 231.788 46.033 236.857 48.6001 240.159C53.8783 247.024 69.0497 244.127 82.4328 233.729C95.8159 223.33 102.363 209.281 97.0561 202.445C91.749 195.609 76.5777 198.477 63.2234 208.875Z" fill="white"/>
<g opacity="0.3">
<path opacity="0.3" d="M155.896 221.939C158.347 228.862 159.587 236.162 159.559 243.519C159.559 279.292 130.687 308.259 95.0947 308.259C61.8677 308.259 34.5247 283.029 31.0058 250.616C30.7462 253.02 30.6309 255.453 30.6309 257.886C30.6309 295.253 61.0024 325.58 98.4405 325.58C135.879 325.58 166.25 295.282 166.25 257.915C166.279 245.17 162.674 232.686 155.896 221.939Z" fill="#543753"/>
</g>
<path d="M141.619 71.1411C141.619 71.1411 136.629 74.3563 131.899 82.1483C127.169 89.9402 122.121 97.2686 122.121 97.2686C122.121 97.2686 120.275 81.482 121.14 79.3965C122.006 77.3109 125.121 72.7053 125.842 71.1411C126.563 69.5769 129.995 67.3465 130.024 66.4485C130.053 65.5506 129.678 62.7409 129.534 62.654C129.39 62.5671 127.659 63.2043 127.399 64.1313C127.197 64.7975 127.053 65.3768 127.053 65.3768C127.053 65.3768 124.717 66.6803 124.313 66.7092C123.909 66.7382 122.006 65.7244 121.977 65.5506C121.948 65.3768 123.563 61.6112 124.054 61.4084C124.544 61.2057 127.255 63.3202 127.774 63.3202C128.293 63.3202 129.39 62.625 129.447 62.2195C129.505 61.814 126.073 58.2801 125.784 58.2511C125.496 58.2221 122.554 57.7007 122.15 57.9904C121.746 58.2801 119.554 60.1918 119.554 60.1918C119.554 60.1918 119.554 53.6165 119.554 52.2841C119.554 50.9516 119.266 46.8384 118.66 46.5487C118.054 46.317 117.391 46.2591 116.756 46.346C116.468 46.4329 116.295 48.2577 116.295 48.2577C116.295 48.2577 114.766 48.026 114.362 48.3446C113.959 48.6633 113.122 61.1188 113.122 61.2346C113.122 61.3505 110.959 58.7146 110.699 58.2221C110.44 57.7297 109.546 54.7172 109.142 54.6014C108.738 54.4855 107.584 54.3986 107.44 54.6883C107.296 54.9779 108.219 59.3229 108.277 59.8153C108.334 60.3077 111.074 66.1589 111.218 67.0568C111.363 67.9548 111.94 75.486 112.113 77.0212C112.286 78.5564 110.353 96.6024 109.921 104.134C109.488 111.665 109.863 118.414 110.324 119.109C110.786 119.804 114.564 122.267 116.583 121.253C118.602 120.239 124.169 115.865 129.476 110.767C134.783 105.669 141.042 98.9777 141.042 98.9777L141.619 71.1411Z" fill="#D9C6BE"/>
<path d="M122.092 97.2397C122.092 97.2397 122.611 101.295 122.813 104.945C122.813 104.945 123.938 101.498 123.39 95.3279L122.092 97.2397Z" fill="#DE835C"/>
<path d="M112.805 65.0002C112.776 65.0002 112.747 65.0002 112.718 64.9713C112.66 64.9133 112.66 64.8265 112.718 64.7685C113.583 63.7837 118.516 60.6553 118.717 60.5105C118.775 60.4815 118.862 60.4815 118.919 60.5684C118.948 60.6264 118.948 60.7133 118.862 60.7712C118.804 60.8002 113.756 64.0154 112.92 64.9713C112.891 65.0002 112.833 65.0002 112.805 65.0002Z" fill="#472938"/>
<path d="M116.583 59.4388C116.554 59.4388 116.583 59.4388 116.583 59.4388C116.496 59.4388 116.439 59.3809 116.439 59.294C116.439 59.2071 116.785 51.5021 116.698 50.1117C116.612 48.8082 116.208 48.4317 116.208 48.4317C116.15 48.3737 116.15 48.2868 116.179 48.2289C116.237 48.171 116.323 48.171 116.381 48.1999C116.439 48.2289 116.871 48.6634 116.958 50.0827C117.044 51.5021 116.698 59.0043 116.698 59.323C116.698 59.3809 116.641 59.4388 116.583 59.4388Z" fill="#472938"/>
<path d="M117.477 71.5177C117.448 71.4887 117.448 71.5177 117.477 71.5177C117.362 71.4887 117.333 71.4308 117.333 71.3439C117.939 67.9259 121.717 65.5217 121.861 65.4348C121.919 65.4058 122.006 65.4058 122.063 65.4927C122.092 65.5507 122.092 65.6376 122.006 65.6955C121.977 65.7245 118.169 68.1287 117.593 71.4308C117.593 71.4598 117.535 71.5177 117.477 71.5177Z" fill="#472938"/>
<path d="M144.82 323.119C144.935 323.727 146.291 325.726 153.127 326.334C159.963 326.942 168.327 324.451 172.451 323.988C175.913 323.611 180.326 322.308 181.652 321.873C181.883 321.815 182.056 321.583 182.056 321.323C182.056 320.917 182.027 320.251 181.998 319.44C176.403 319.527 168.5 321.612 159.011 322.916C151.858 323.901 147.041 322.018 144.935 320.888C144.82 321.641 144.791 322.366 144.82 323.119Z" fill="#3B2645"/>
<path d="M181.133 306.116C178.624 306.347 177.586 308.433 176.374 309.128C175.163 309.823 171.586 310.113 171.904 305.565C172.221 301.017 168.731 299.656 168.731 299.656C167.779 299.685 165.212 304.783 160.857 310.287C156.501 315.79 146.06 318.687 145.599 318.861C145.339 318.948 145.137 319.903 144.993 320.888C147.099 321.989 151.915 323.901 159.068 322.916C168.529 321.612 176.461 319.527 182.056 319.44C181.97 316.456 181.797 311.358 181.508 309.186C181.335 308.346 181.249 307.245 181.133 306.116Z" fill="#FF8A00"/>
<path d="M171.904 305.594C171.615 310.142 175.163 309.852 176.374 309.157C177.586 308.462 178.653 306.376 181.133 306.145C180.903 303.219 180.73 300.091 180.73 300.091L168.702 299.685C168.731 299.685 172.192 301.075 171.904 305.594Z" fill="#D9C6BE"/>
<path d="M158.694 316.833C164.347 316.312 171.904 306.579 171.904 306.579C171.875 306.26 171.875 305.913 171.904 305.594C172.192 301.046 168.731 299.685 168.731 299.685C167.779 299.714 165.212 304.812 160.857 310.316C159.184 312.459 156.559 314.197 153.992 315.53C155.319 316.572 156.992 317.036 158.694 316.833Z" fill="#3B2645"/>
<path d="M124.63 321.381C125.121 322.916 128.265 323.466 135.216 323.466C142.167 323.466 145.484 311.069 148.31 308.549C151.137 306.057 156.992 297.483 156.992 296.006C156.992 295.572 156.127 294.5 154.886 293.167C153.646 295.832 150.877 301.191 146.81 305.044C143.436 308.259 143.292 319.063 134.898 321.062C130.976 321.989 127.313 320.946 124.544 319.585C124.428 320.193 124.486 320.801 124.63 321.381Z" fill="#3B2645"/>
<path d="M146.291 284.854C143.32 288.041 144.272 291.922 144.128 293.486C143.984 295.05 138.648 295.456 137.811 295.108C136.975 294.761 136.081 293.457 134.408 293.486C133.398 293.515 132.475 294.008 131.927 294.848C131.495 300.38 130.716 306.955 130.37 309.562C129.793 313.878 127.312 314.979 126.072 315.848C125.207 316.427 124.63 318.136 124.515 319.614C127.284 320.975 130.947 322.018 134.869 321.091C143.291 319.121 143.407 308.288 146.781 305.073C150.848 301.22 153.617 295.89 154.857 293.197C151.858 289.952 146.666 285.289 146.291 284.854Z" fill="#FF8A00"/>
<path d="M134.379 293.457C136.081 293.428 136.946 294.732 137.783 295.079C138.619 295.427 143.955 295.021 144.1 293.457C144.244 291.893 143.292 288.012 146.263 284.825C145.744 284.188 143.955 280.857 143.955 280.857L132.101 286.737C132.303 288.127 132.159 291.256 131.87 294.819C132.447 293.979 133.399 293.486 134.379 293.457Z" fill="#D9C6BE"/>
<path d="M133.11 312.923C137.321 311.387 137.783 295.079 137.783 295.079C136.946 294.732 136.052 293.428 134.379 293.457C133.37 293.486 132.447 293.979 131.899 294.819C131.466 300.351 130.688 306.927 130.341 309.534C130.197 310.866 129.736 312.141 129.015 313.27C130.399 313.502 131.812 313.357 133.11 312.923Z" fill="#3B2645"/>
<path d="M182.893 132.608C182.893 132.608 198.122 158.503 198.122 171.625C198.122 184.747 185.027 228.631 184.797 234.54C184.566 240.449 189.21 253.368 187.739 266.403C186.268 279.438 180.73 300.062 180.73 300.062C180.73 300.062 173.288 301.191 168.702 299.656C168.702 299.656 168.5 260.899 165.789 245.055C163.078 229.21 160.972 195.638 160.972 195.638C160.972 195.638 133.139 225.85 132.245 230.861C131.351 235.872 136.456 239.175 138.879 254.295C141.301 269.415 143.984 280.886 143.984 280.886C143.984 280.886 138.504 287.374 132.129 286.766C132.129 286.766 108.392 233.092 109.747 226.082C111.103 219.072 138.561 167.454 139.571 161.342C140.58 155.23 141.301 147.467 142.571 139.502L182.893 132.608Z" fill="#E23823"/>
<path d="M164.029 150.016C173.663 148.394 181.306 142.601 185.95 138.14C184.162 134.78 182.893 132.636 182.893 132.636L142.541 139.501C142.253 141.297 141.993 143.093 141.763 144.86C145.483 147.699 153.04 151.87 164.029 150.016Z" fill="#3B2645"/>
<g opacity="0.5">
<path opacity="0.5" d="M161.001 195.638V183.473C161.001 183.473 157.367 176.231 157.021 170.177L157.857 188.02L149.954 207.978L161.001 195.638Z" fill="#543753"/>
</g>
<path d="M142.571 123.107C143.408 127.249 142.571 139.502 142.571 139.502C142.571 139.502 144.59 144.05 155.435 145.845C166.28 147.641 182.894 132.608 182.894 132.608C181.336 129.074 181.077 125.019 181.192 121.89C156.993 118.154 142.571 123.107 142.571 123.107Z" fill="#D9C6BE"/>
<path d="M181.826 129.364C181.278 126.901 181.076 124.41 181.192 121.89C178.278 121.427 175.509 121.108 172.885 120.876L173.548 126.728L181.826 129.364Z" fill="#DE835C"/>
<path d="M156.705 92.4316C171.991 91.0413 176.635 77.9775 178.019 70.678L173.924 69.5193L153.965 67.4917L148.109 68.9979C145.023 79.6865 143.408 93.6192 156.705 92.4316Z" fill="#D9C6BE"/>
<path d="M189.498 73.8351L183.383 72.155C179.518 105.582 186.787 104.684 186.787 104.684L188.806 99.3833L189.498 73.8351Z" fill="#D9C6BE"/>
<path d="M181.711 116.85C186.874 112.216 186.788 104.684 186.788 104.684C186.788 104.684 179.49 105.582 183.384 72.1552L178.019 70.6779C176.606 77.9774 171.962 91.0702 156.704 92.4316C143.408 93.6192 145.023 79.6864 148.138 69.0269L142.11 70.591C142.11 70.591 135.101 93.5613 134.899 101.875C134.755 107.204 137.928 114.417 140.264 118.907C155.926 112.216 181.711 116.85 181.711 116.85Z" fill="#E23823"/>
<path d="M181.192 121.89C181.249 120.181 181.422 118.501 181.74 116.821C181.74 116.821 155.954 112.186 140.264 118.878C141.562 121.398 142.571 123.078 142.571 123.078C142.571 123.078 156.993 118.153 181.192 121.89Z" fill="#3B2645"/>
<path d="M183.384 72.1262C183.384 72.1262 186.211 87.9418 175.827 106.538L174.645 119.167L175.654 147.989C175.654 147.989 171.039 149.234 168.588 149.234C166.136 149.234 162.704 150.364 162.704 150.364L162.213 145.7L159.617 145.758C159.617 145.758 158.867 136.286 162.098 128.524C165.328 120.761 166.886 116.068 167.405 108.073C167.924 100.079 166.136 89.3611 172.049 73.0531L183.384 72.1262Z" fill="white"/>
<path d="M188.835 99.3834L187.105 92.8081L186.816 104.655L188.835 99.3834Z" fill="#DE835C"/>
<path d="M155.377 144.078C155.68 144.078 155.925 143.702 155.925 143.238C155.925 142.774 155.68 142.398 155.377 142.398C155.074 142.398 154.829 142.774 154.829 143.238C154.829 143.702 155.074 144.078 155.377 144.078Z" fill="#DE835C"/>
<path d="M154.945 58.3962C154.945 58.3962 155.06 70.3302 148.657 86.2038C142.254 102.077 141.735 107.668 143.235 123.078C144.734 138.488 141.043 150.798 141.043 150.798C141.043 150.798 123.968 154.361 117.189 145.121C117.189 145.121 125.554 125.772 129.303 102.657C133.053 79.5415 142.11 70.533 142.11 70.533C142.11 70.533 143.84 65.5508 147.763 66.0722C147.763 66.1301 150.936 58.1934 154.945 58.3962Z" fill="white"/>
<path d="M133.601 135.475C133.515 135.475 133.457 135.417 133.457 135.33C132.303 113.78 138.533 94.1983 141.879 83.6836L142.11 82.9884C142.139 82.9015 142.225 82.8725 142.283 82.9015C142.369 82.9305 142.398 83.0173 142.369 83.0753L142.139 83.7705C138.793 94.2852 132.592 113.808 133.745 135.301C133.745 135.417 133.688 135.475 133.601 135.475Z" fill="#472938"/>
<path d="M143.61 78.6725H143.581C143.494 78.6435 143.465 78.5566 143.494 78.4987C145.888 70.2433 147.619 66.1301 147.648 66.1012C147.676 66.0143 147.763 65.9853 147.85 66.0143C147.936 66.0432 147.965 66.1301 147.936 66.217C147.907 66.246 146.177 70.3592 143.811 78.5856C143.725 78.6146 143.667 78.6725 143.61 78.6725Z" fill="#472938"/>
<path d="M133.111 96.4868H133.082C132.996 96.4579 132.967 96.3999 132.967 96.313C135.476 86.5514 141.908 70.7069 141.966 70.5331C141.995 70.4462 142.081 70.4172 142.168 70.4462C142.254 70.4751 142.283 70.562 142.254 70.6489C142.197 70.7938 135.765 86.6383 133.255 96.371C133.255 96.4289 133.198 96.4868 133.111 96.4868Z" fill="#472938"/>
<path d="M162.242 145.874C162.156 145.874 162.098 145.816 162.098 145.73C162.098 145.643 162.04 135.968 163.915 131.478C163.944 131.391 164.03 131.362 164.117 131.391C164.203 131.42 164.232 131.507 164.203 131.594C162.357 136.026 162.415 145.643 162.415 145.73C162.386 145.816 162.329 145.874 162.242 145.874Z" fill="#472938"/>
<path d="M165.241 144.223C165.155 144.223 165.097 144.165 165.097 144.078C165.097 143.991 164.78 135.91 166.51 129.827C168.241 123.802 168.702 113.519 168.702 113.432C168.702 113.345 168.76 113.287 168.847 113.287C168.933 113.287 168.991 113.345 168.991 113.432C168.991 113.548 168.529 123.831 166.799 129.914C165.068 135.939 165.385 143.991 165.385 144.049C165.385 144.136 165.328 144.223 165.241 144.223Z" fill="#472938"/>
<path d="M171.126 131.246C171.097 131.246 171.097 131.246 171.126 131.246C171.01 131.217 170.981 131.159 170.981 131.072C172.106 125.163 171.212 112.997 171.212 112.853C171.212 112.766 171.27 112.708 171.356 112.708C171.443 112.708 171.501 112.766 171.501 112.853C171.501 112.968 172.395 125.192 171.27 131.13C171.241 131.188 171.183 131.246 171.126 131.246Z" fill="#472938"/>
<path d="M173.26 107.899C173.145 107.87 173.116 107.813 173.116 107.726C173.145 107.61 174.933 96.5447 176.664 91.4466C176.693 91.3597 176.779 91.3308 176.837 91.3597C176.923 91.3887 176.952 91.4756 176.923 91.5335C175.222 96.6026 173.405 107.639 173.405 107.755C173.405 107.842 173.347 107.899 173.26 107.899Z" fill="#472938"/>
<path d="M171.126 106.683C171.068 106.683 171.011 106.625 170.982 106.567C170.982 106.509 170.03 101.614 171.27 92.7792C171.27 92.6923 171.357 92.6343 171.443 92.6633C171.53 92.6633 171.587 92.7502 171.559 92.8371C170.347 101.643 171.27 106.48 171.27 106.538C171.27 106.596 171.213 106.683 171.126 106.683Z" fill="#472938"/>
<path d="M173.751 49.1848L173.924 69.5191H153.763L155.695 51.3862L173.751 49.1848Z" fill="#D9C6BE"/>
<path d="M155.694 51.3862C155.694 51.3862 158.636 70.6488 173.837 59.352L173.75 49.1848L155.694 51.3862Z" fill="#DE835C"/>
<path d="M152.452 48.2984C153.755 47.9261 154.209 45.5038 153.468 42.8881C152.726 40.2724 151.069 38.4538 149.767 38.8261C148.465 39.1984 148.01 41.6207 148.752 44.2364C149.493 46.8521 151.15 48.6707 152.452 48.2984Z" fill="#DE835C"/>
<path d="M173.779 51.0966C173.779 51.0966 173.722 56.0498 173.491 59.352C173.491 59.352 171.126 66.8542 172.193 73.8351C173.26 80.8159 172.914 85.9719 171.241 88.463L173.116 87.5651C173.116 87.5651 182.721 87.6809 182.605 73.6323C182.605 73.6323 187.451 65.7535 180.183 56.5133C172.914 47.273 177.01 42.2329 177.01 42.2329C177.01 42.2329 174.01 43.7392 173.779 51.0966Z" fill="#3B2645"/>
<path d="M176.952 42.2039C176.952 42.2039 174.01 43.7391 173.75 51.0965C173.75 51.0965 173.693 56.0497 173.462 59.3519C174.616 56.2815 175.596 53.1531 176.404 49.9668C174.76 44.8977 176.952 42.2039 176.952 42.2039Z" fill="#3B2645"/>
<path d="M178.161 43.8038C178.943 41.2004 178.527 38.7713 177.231 38.3783C175.935 37.9853 174.249 39.7773 173.467 42.3807C172.684 44.9842 173.101 47.4133 174.397 47.8063C175.693 48.1993 177.378 46.4073 178.161 43.8038Z" fill="#D9C6BE"/>
<path d="M150.791 29.3429C150.791 29.3429 150.272 44.4053 152.262 50.72C154.253 57.0346 159.214 61.032 162.473 61.032C165.732 61.032 172.078 58.6567 174.558 48.5185C177.038 38.3803 176.75 25.6642 166.107 22.333C155.464 19.0019 150.791 25.9828 150.791 29.3429Z" fill="#D9C6BE"/>
<path d="M175.769 40.2343C175.769 40.2343 175.192 36.15 173 33.9196C170.808 31.6892 166.309 30.183 167.145 26.6201C167.145 26.6201 164.261 28.3291 159.069 28.3291C153.877 28.3291 150.301 32.3844 150.82 39.2784L150.157 38.8149C150.157 38.8149 147.676 29.0243 150.705 24.2739C153.762 19.5234 160.973 16.5109 166.799 18.162C172.625 19.813 179.173 23.7235 178.596 31.3706C178.423 33.8038 178.076 36.2079 177.557 38.5832C177.557 38.5542 175.884 38.8149 175.769 40.2343Z" fill="#3B2645"/>
<path d="M155.435 41.4219C154.974 41.4219 154.599 41.0743 154.57 40.6108L154.541 40.0894C154.541 39.626 154.887 39.2494 155.349 39.2205C155.81 39.2205 156.185 39.5681 156.214 40.0315L156.243 40.5529C156.243 41.0164 155.897 41.4219 155.435 41.4219Z" fill="#472938"/>
<path d="M168.328 41.8565C167.866 41.7985 167.549 41.364 167.635 40.9006L167.722 40.3792C167.78 39.9157 168.212 39.5971 168.674 39.684C169.135 39.7419 169.452 40.1764 169.366 40.6399L169.279 41.1613C169.193 41.6247 168.76 41.9144 168.328 41.8565Z" fill="#472938"/>
<path d="M152.436 37.888C152.436 37.888 153.214 37.019 155.031 36.9901C156.849 36.9611 157.425 37.1349 157.541 36.5556C157.656 35.9762 153.762 34.499 152.436 37.888Z" fill="#472938"/>
<path d="M171.386 37.6273C171.386 37.6273 170.52 36.8162 168.559 36.9031C166.598 36.99 166.021 37.1928 165.877 36.6424C165.733 36.0921 169.857 34.3251 171.386 37.6273Z" fill="#472938"/>
<path d="M166.251 50.4304L158.637 50.1697C158.637 50.1697 159.041 55.4126 162.444 55.3257C165.847 55.2388 166.251 50.4304 166.251 50.4304Z" fill="white"/>
<path d="M161.982 48.1421C161.492 48.1421 161.031 48.0262 160.656 47.8524C160.338 47.6786 160.165 47.4469 160.079 47.1862C159.906 46.52 160.252 44.8979 160.656 42.8702L160.8 42.233C161.463 38.9598 159.675 38.0618 159.589 38.0329C159.502 38.0039 159.473 37.888 159.502 37.8011C159.531 37.7142 159.646 37.6853 159.733 37.7142C159.819 37.7432 161.838 38.757 161.117 42.2909L160.973 42.9282C160.569 44.8399 160.252 46.52 160.396 47.0993C160.454 47.2731 160.569 47.4179 160.8 47.5628C161.348 47.8524 162.213 47.9103 163.021 47.6497C163.107 47.6207 163.223 47.6786 163.252 47.7655C163.28 47.8524 163.223 47.9683 163.136 47.9972C162.761 48.0841 162.357 48.1421 161.982 48.1421Z" fill="#472938"/>
<path d="M189.498 73.8352C189.498 73.8352 195.526 74.1249 198.526 82.7568C201.526 91.3598 211.015 116.387 211.39 120.992C211.765 125.598 210.351 129.306 203.804 130.667C198.237 131.826 183.47 127.51 182.259 127.394C181.047 127.278 177.615 127.191 176.461 125.192C175.307 123.194 174.673 119.805 174.673 119.805C174.673 119.805 171.644 118.646 171.125 118.646C170.606 118.646 166.943 118.878 166.597 118.327C166.251 117.777 166.251 116.734 166.366 116.242C166.366 116.242 165.732 115.083 165.933 114.388C165.933 114.388 165.27 112.708 165.328 112.331C165.385 111.955 167.174 110.854 167.549 110.767C167.924 110.68 172.25 110.506 172.25 110.506C172.25 110.506 170.952 108.913 170.721 108.855C170.491 108.797 167.404 108.913 167.404 108.913L167.347 109.695C167.347 109.695 166.51 108.971 166.366 108.566C166.222 108.16 166.481 106.973 166.828 106.828C167.174 106.683 171.269 105.322 172.51 105.756C173.75 106.191 177.701 108.624 178.221 109.435C178.74 110.246 181.653 118.385 182.576 118.994C183.499 119.602 188.229 120.268 195.786 118.646L185.027 91.3308L189.498 73.8352Z" fill="#D9C6BE"/>
</g>
<defs>
<clipPath id="clip0_297_2187">
<rect width="255" height="327" fill="white"/>
</clipPath>
</defs>
</svg>
