<svg width="310" height="539" viewBox="0 0 310 539" fill="none" xmlns="http://www.w3.org/2000/svg">
<rect width="310" height="539" rx="40" fill="#4477E8"/>
<path d="M167.871 100.585L168.966 116.334C169.148 118.807 171.051 120.786 173.502 121.046L187.865 122.66C187.865 122.66 193.104 160.484 184.267 176.103C175.431 191.721 180.149 210.672 191.175 236.547C191.175 236.547 145.897 246.726 120.325 237.224C120.325 237.224 131.612 211.297 128.744 192.554C125.877 173.812 118.396 171.078 118.813 158.063C119.23 145.047 123.296 123.155 123.296 123.155L137.998 120.369C139.484 120.083 140.605 118.912 140.814 117.428L142.899 102.902L167.871 100.585Z" fill="#FFEDE5"/>
<path d="M203.268 447.265C203.561 436.958 204.523 421.827 204.356 407.819C204.105 387.674 202.306 365 201.427 358.394C200.506 351.789 202.64 321.197 202.64 321.197L164.813 327.1C165.734 330.379 172.596 359.144 172.889 371.699C173.224 384.254 186.991 442.721 187.535 447.405C187.618 448.014 187.66 448.67 187.744 449.326C191.217 449.795 197.87 450.169 203.268 447.265Z" fill="#FFEDE5"/>
<path d="M191.552 462.209C191.552 462.209 191.134 457.197 196.155 455.979C201.176 454.761 203.478 457.571 203.478 457.571C203.185 455.37 203.185 451.762 203.31 447.265C197.913 450.169 191.259 449.795 187.828 449.326C188.163 452.98 188.247 457.337 187.912 460.898C188.456 462.49 191.552 462.209 191.552 462.209Z" fill="white"/>
<path d="M186.28 483.572C191.636 486.711 190.088 493.738 196.783 495.471C202.348 496.924 210.801 496.08 214.106 495.659C214.985 495.565 215.696 494.769 215.864 493.785C215.947 493.082 216.031 492.145 215.989 491.161C211.805 491.583 201.971 492.426 198.038 491.349C193.017 489.99 191.803 484.228 189.293 482.635C187.41 481.464 186.196 479.918 185.694 479.215C185.61 480.199 185.485 481.042 185.443 481.651C185.276 482.494 185.652 483.244 186.28 483.572Z" fill="#3B2645"/>
<path d="M214.106 484.884C213.102 483.291 211.637 479.871 210.131 475.982C209.252 479.496 199.209 477.856 197.912 477.482C196.615 477.107 191.594 462.209 191.594 462.209C191.594 462.209 188.497 462.443 187.912 460.851C187.828 461.647 187.744 462.443 187.619 463.146C187.117 466.144 186.196 474.343 185.694 479.215C186.196 479.918 187.409 481.417 189.292 482.635C191.845 484.228 193.017 489.99 198.038 491.348C201.971 492.426 211.805 491.583 215.989 491.161C215.863 489.287 215.445 487.039 214.106 484.884Z" fill="#E23823"/>
<path d="M197.871 477.482C199.168 477.856 209.211 479.496 210.089 475.983C206.909 467.831 203.436 457.571 203.436 457.571C203.436 457.571 201.135 454.76 196.113 455.978C191.092 457.196 191.51 462.209 191.51 462.209C191.51 462.209 196.574 477.154 197.871 477.482Z" fill="#3B2645"/>
<path d="M189.6 359.864C193.573 359.173 196.671 357.721 196.518 356.622C196.365 355.522 193.021 355.192 189.047 355.883C185.074 356.575 181.977 358.026 182.13 359.126C182.282 360.225 185.627 360.556 189.6 359.864Z" fill="#E0855C"/>
<path d="M96.0635 448.061C96.1053 437.708 96.6074 422.67 97.1933 408.662C98.2394 383.786 103.093 361.908 103.093 359.238C103.093 348.65 104.181 315.81 104.767 316.606L139.791 326.116C138.786 329.349 129.204 356.52 128.493 369.076C127.781 381.631 112.466 444.173 111.755 448.811C111.671 449.42 111.588 450.029 111.504 450.731C108.031 451.013 101.378 451.153 96.0635 448.061Z" fill="#FFEDE5"/>
<path d="M107.319 463.427C107.319 463.427 107.905 458.415 102.926 457.009C97.9462 455.604 95.561 458.321 95.561 458.321C95.9376 456.119 96.0632 452.512 96.0632 448.014C101.377 451.106 108.031 450.966 111.504 450.638C111.085 454.245 110.834 458.602 111.085 462.209C110.374 463.802 107.319 463.427 107.319 463.427Z" fill="white"/>
<path d="M111.922 484.977C106.441 487.929 107.822 495.003 101.085 496.455C95.4776 497.673 87.0669 496.549 83.7612 495.987C82.8825 495.846 82.1712 495.05 82.0875 494.019C82.0038 493.316 81.9619 492.379 82.0456 491.396C86.23 491.958 96.0216 493.176 99.9967 492.286C105.06 491.114 106.441 485.399 108.993 483.9C110.918 482.776 112.173 481.323 112.717 480.621C112.801 481.604 112.843 482.448 112.885 483.104C112.968 483.9 112.55 484.649 111.922 484.977Z" fill="#3B2645"/>
<path d="M84.0963 485.258C85.1424 483.712 86.7324 480.339 88.3644 476.498C89.1594 480.058 99.202 478.793 100.541 478.465C101.88 478.137 107.32 463.427 107.32 463.427C107.32 463.427 110.374 463.802 111.044 462.209C111.086 463.006 111.169 463.802 111.253 464.505C111.672 467.55 112.341 475.748 112.718 480.62C112.174 481.323 110.918 482.775 108.994 483.9C106.399 485.399 105.06 491.067 99.997 492.286C96.0637 493.222 86.2303 492.004 82.0459 491.395C82.1714 489.568 82.7154 487.32 84.0963 485.258Z" fill="#E23823"/>
<path d="M100.499 478.465C99.1599 478.793 89.1173 480.058 88.3223 476.498C91.7535 468.44 95.5194 458.321 95.5194 458.321C95.5194 458.321 97.9046 455.604 102.884 457.009C107.863 458.414 107.278 463.427 107.278 463.427C107.278 463.427 101.838 478.137 100.499 478.465Z" fill="#3B2645"/>
<path d="M119.799 363.239C119.985 362.146 116.933 360.578 112.983 359.738C109.032 358.897 105.679 359.102 105.494 360.195C105.308 361.288 108.36 362.855 112.311 363.696C116.261 364.536 119.614 364.332 119.799 363.239Z" fill="#E0855C"/>
<path d="M198.037 231.905C198.037 231.905 205.067 281.751 202.64 321.197C202.64 321.197 189.041 332.581 157.281 325.788L152.386 294.447L144.351 325.976C144.351 325.976 111.42 328.178 102.591 313.889C102.591 313.889 107.319 254.767 117.32 230.875C127.321 206.982 194.774 212.323 198.037 231.905Z" fill="#E23823"/>
<path d="M152.386 294.447C152.386 294.447 148.452 290.559 148.034 290.184C147.615 289.809 143.975 273.693 143.975 273.693L147.992 311.687L152.386 294.447Z" fill="#3B2645"/>
<path d="M170.379 322.04C163.307 322.04 158.202 321.431 158.077 321.431C157.951 321.431 157.867 321.291 157.909 321.15C157.909 321.01 158.035 320.916 158.16 320.963C158.453 321.01 186.531 324.336 202.892 315.107C202.975 315.06 203.101 315.107 203.185 315.201C203.227 315.294 203.185 315.435 203.101 315.529C193.519 320.916 180.087 322.04 170.379 322.04Z" fill="white"/>
<path d="M145.649 321.103C145.607 321.103 145.649 321.103 145.649 321.103C115.186 318.246 103.093 308.736 102.968 308.642C102.884 308.548 102.842 308.408 102.926 308.314C103.01 308.22 103.135 308.173 103.219 308.267C103.344 308.361 115.354 317.777 145.691 320.635C145.816 320.635 145.9 320.775 145.9 320.869C145.816 321.01 145.733 321.103 145.649 321.103Z" fill="white"/>
<path d="M142.925 102.902C142.925 102.902 150.146 122.66 168.575 110.842L167.871 100.585L142.925 102.902Z" fill="#DD825C"/>
<path d="M154.655 238.292C155.188 238.292 155.62 237.581 155.62 236.704C155.62 235.827 155.188 235.116 154.655 235.116C154.122 235.116 153.691 235.827 153.691 236.704C153.691 237.581 154.122 238.292 154.655 238.292Z" fill="#DD825C"/>
<path d="M191.193 163.548L193.36 224.499C157.609 238.559 118.956 225.434 118.956 225.434L118.105 167.014L117 158.5C115.259 157.955 113.346 165.534 111.45 164.755C110.366 164.326 109.244 163.898 108.122 163.353C103.28 161.126 102.066 159.255 97.5 156.5C100.596 146.715 105.31 141.388 108.122 129.5C110.399 126.909 113.194 125.444 116.5 124.5C118.938 123.838 122.245 122.381 124.953 121.913C129.997 121.065 133.891 120.259 139 120.044L154.243 155.369C160.256 143.944 166.2 132.145 170.725 120.044H170.454C170.494 120.015 170.541 120 170.59 120C170.638 120 170.686 120.015 170.725 120.044C173.862 120.087 176.991 120.36 180.088 120.862C185.988 121.668 191.786 123.104 197.383 125.146C198.1 125.345 198.78 125.661 199.395 126.081C200.343 126.747 201.224 127.503 202.026 128.34C208.963 135.779 191.089 139.227 194 149C189.344 151.149 202.239 146.861 197.383 148.5C190.961 150.525 191.193 163.548 191.193 163.548Z" fill="#3B2645"/>
<path d="M179.205 88.4141C180.519 84.7761 180.003 81.2574 178.053 80.555C176.103 79.8526 173.457 82.2323 172.143 85.8703C170.829 89.5083 171.345 93.027 173.295 93.7294C175.245 94.4318 177.891 92.0521 179.205 88.4141Z" fill="#FFEDE5"/>
<path d="M136.422 93.7385C138.372 93.036 138.888 89.5174 137.574 85.8794C136.26 82.2414 133.614 79.8616 131.663 80.5641C129.713 81.2665 129.198 84.7851 130.512 88.4231C131.825 92.0612 134.472 94.4409 136.422 93.7385Z" fill="#FFEDE5"/>
<path d="M172.812 76.1785C174.675 73.1422 175.742 69.663 175.91 66.0785C176.114 64.4686 175.971 62.8325 175.491 61.2856C175.012 59.7386 174.208 58.3185 173.136 57.1253C172.236 56.2374 171.119 55.5344 170.29 54.5725C169.462 53.6106 169.066 52.6117 168.381 51.6868C167.639 50.6945 166.684 49.8913 165.591 49.3395C164.497 48.7876 163.295 48.5021 162.077 48.5051C159.591 48.5051 156.961 49.689 154.871 48.5051C153.575 47.8391 152.71 46.5072 151.269 45.7673C149.913 45.0584 148.357 44.862 146.874 45.2124C145.578 45.6764 144.21 45.8897 142.839 45.8413C140.893 45.5453 139.561 43.7695 137.831 42.7706C136.942 42.3039 135.965 42.0425 134.967 42.0048C133.97 41.967 132.976 42.1539 132.056 42.5522C131.136 42.9505 130.312 43.5507 129.642 44.3106C128.972 45.0705 128.472 45.9718 128.176 46.9512C127.942 47.8855 127.942 48.8657 128.176 49.7999C128.573 52.0567 130.086 53.8696 130.194 56.1264C130.302 58.3832 128.969 60.344 130.194 62.3418C131.419 64.3396 133.22 64.4136 134.085 66.3004C135.237 68.8532 134.085 72.1829 135.129 74.9206C135.67 76.6595 135.958 79.1383 137.543 80.2482C139.741 81.802 144.532 80.5071 147.162 80.2482L157.357 79.3972C161.86 78.9533 167.408 79.3972 171.479 77.1034C171.971 76.8739 172.421 76.5612 172.812 76.1785Z" fill="#3B2645"/>
<path d="M138.895 67.9287C136.431 70.7431 136.218 77.0286 136.048 83.9709C135.411 105.079 141.146 111.646 150.874 112.819C160.603 113.991 170.841 109.817 172.922 90.3033C173.984 80.4997 175.089 71.5405 171.86 67.272C167.23 60.9865 146.371 59.2978 138.895 67.9287Z" fill="#FFEDE5"/>
<path d="M135.235 89.5999C135.157 89.5999 135.079 89.5738 135.027 89.4957L132.472 85.8774C132.394 85.7733 132.42 85.591 132.524 85.5129C132.629 85.4348 132.785 85.4609 132.889 85.565L135.444 89.1834C135.522 89.2875 135.496 89.4697 135.392 89.5478C135.34 89.5999 135.287 89.5999 135.235 89.5999Z" fill="#472938"/>
<path d="M174.727 89.1052C174.675 89.1052 174.597 89.0792 174.571 89.0532C174.466 88.949 174.466 88.7928 174.545 88.6887L177.255 85.591C177.36 85.4869 177.516 85.4868 177.62 85.5649C177.725 85.6691 177.725 85.8253 177.646 85.9294L174.936 89.0271C174.857 89.0792 174.779 89.1052 174.727 89.1052Z" fill="#472938"/>
<path d="M154.343 94.884C153.013 94.884 151.319 93.8167 151.084 93.3742C150.823 92.8535 151.553 89.912 152.778 86.6841C154.082 83.248 153.352 81.2435 153.352 81.2175C153.3 81.0874 153.378 80.9312 153.508 80.8791C153.639 80.827 153.795 80.9051 153.847 81.0353C153.873 81.1134 154.655 83.1959 153.274 86.8403C151.84 90.6409 151.475 92.8535 151.553 93.1139C151.684 93.3742 153.326 94.4415 154.499 94.3373C155.698 94.2332 157.497 93.218 157.497 93.192C157.627 93.1139 157.783 93.1659 157.835 93.2961C157.914 93.4262 157.862 93.5824 157.731 93.6345C157.653 93.6866 155.828 94.7278 154.525 94.8319C154.473 94.884 154.395 94.884 154.343 94.884Z" fill="#472938"/>
<path d="M154.655 100.845C151.084 100.845 148.66 98.4246 148.555 98.3205C148.451 98.2163 148.451 98.0601 148.555 97.956C148.66 97.8519 148.816 97.8519 148.92 97.956C148.947 97.9821 151.319 100.325 154.655 100.325C157.992 100.325 160.364 97.9821 160.39 97.956C160.494 97.8519 160.651 97.8519 160.755 97.956C160.859 98.0601 160.859 98.2163 160.755 98.3205C160.651 98.4246 158.226 100.845 154.655 100.845Z" fill="#472938"/>
<path d="M164.3 84.628C163.414 84.602 162.736 83.8471 162.762 82.962L162.814 81.8166C162.84 80.9315 163.596 80.2547 164.483 80.2808C165.369 80.3068 166.047 81.0617 166.021 81.9468L165.968 83.0922C165.942 83.9772 165.186 84.6801 164.3 84.628Z" fill="#472938"/>
<path d="M145.74 84.628C144.854 84.6801 144.098 83.9772 144.072 83.0922L144.02 81.9468C143.968 81.0617 144.671 80.3068 145.558 80.2808C146.444 80.2287 147.2 80.9316 147.226 81.8166L147.278 82.962C147.304 83.8471 146.627 84.602 145.74 84.628Z" fill="#472938"/>
<path d="M169.253 76.2716C169.253 76.2716 167.246 74.4755 164.196 75.0221C161.146 75.5688 160.468 75.725 160.26 75.4907C160.051 75.2824 159.79 73.5644 163.309 73.0177C166.829 72.4711 169.07 74.892 169.253 76.2716Z" fill="#472938"/>
<path d="M150.1 76.3329C150.1 76.3329 148.093 74.5368 145.043 75.0834C141.993 75.6301 141.315 75.7863 141.107 75.552C140.898 75.3437 140.637 73.6257 144.156 73.079C147.675 72.5323 149.917 74.9533 150.1 76.3329Z" fill="#472938"/>
<path d="M189.404 122.003C189.404 122.003 205.548 121.22 208.963 143.698C208.963 143.698 225.55 171.501 227.458 180.391C229.365 189.28 225.95 201.811 221.781 208.233C217.612 214.655 203.73 235.41 201.202 238.582C198.674 241.754 199.073 242.576 192.465 243.007C192.465 243.007 187.586 243.79 186.61 244.182C185.635 244.574 179.736 247.354 178.538 246.962C177.341 246.61 176.188 245.2 176.409 244.926C176.676 244.613 182.84 241.676 182.84 241.676C182.84 241.676 172.906 243.164 171.974 243.125C171.043 243.085 169.668 241.245 169.668 241.245C169.668 241.245 166.43 239.953 166.031 238.935C165.632 237.916 169.18 235.88 169.18 235.88C169.18 235.88 167.051 235.41 166.297 234.431C165.543 233.452 178.716 227.226 180.312 227.304C181.909 227.382 192.731 228.596 192.731 228.596C192.731 228.596 207.1 187.792 207.234 185.246C207.367 182.701 195.835 172.089 194.061 163.239C194.15 163.239 186.743 132.459 189.404 122.003Z" fill="#FFEDE5"/>
<path d="M169.047 241.362C168.87 241.362 168.737 241.284 168.648 241.127C168.56 240.932 168.648 240.697 168.87 240.618L178.893 236.585C179.115 236.507 179.381 236.585 179.47 236.781C179.559 236.977 179.47 237.211 179.248 237.29L169.225 241.323C169.18 241.362 169.136 241.362 169.047 241.362Z" fill="#472938"/>
<path d="M169.269 236.311C169.091 236.311 168.958 236.233 168.87 236.115C168.737 235.919 168.825 235.684 169.047 235.567L178.849 230.946C179.07 230.829 179.336 230.907 179.47 231.103C179.603 231.299 179.514 231.533 179.292 231.651L169.491 236.272C169.402 236.272 169.313 236.311 169.269 236.311Z" fill="#472938"/>
<path d="M120.596 123.003C120.596 123.003 104.452 122.226 101.037 144.524C101.037 144.524 84.4495 172.105 82.5424 180.923C80.6353 189.742 84.0503 202.173 88.2193 208.543C92.3883 214.914 106.27 235.503 108.798 238.649C111.326 241.796 110.927 242.612 117.535 243.039C117.535 243.039 122.414 243.816 123.39 244.204C124.365 244.593 130.264 247.351 131.462 246.963C132.659 246.613 133.812 245.215 133.591 244.943C133.324 244.632 127.16 241.718 127.16 241.718C127.16 241.718 137.094 243.194 138.026 243.156C138.957 243.117 140.332 241.291 140.332 241.291C140.332 241.291 143.57 240.009 143.969 238.999C144.368 237.989 140.82 235.969 140.82 235.969C140.82 235.969 142.949 235.503 143.703 234.532C144.457 233.561 131.284 227.384 129.688 227.462C128.091 227.539 117.269 228.744 117.269 228.744C117.269 228.744 102.9 188.265 102.766 185.74C102.633 183.215 114.165 172.688 115.939 163.909C115.85 163.909 123.257 133.375 120.596 123.003Z" fill="#FFEDE5"/>
<path d="M140.953 241.408C141.13 241.408 141.263 241.33 141.352 241.175C141.44 240.98 141.352 240.747 141.13 240.67L131.107 236.668C130.885 236.591 130.619 236.668 130.53 236.863C130.441 237.057 130.53 237.29 130.752 237.368L140.775 241.369C140.82 241.408 140.864 241.408 140.953 241.408Z" fill="#472938"/>
<path d="M140.731 236.397C140.908 236.397 141.041 236.319 141.13 236.202C141.263 236.008 141.174 235.775 140.953 235.658L131.151 231.075C130.929 230.958 130.663 231.036 130.53 231.23C130.397 231.424 130.486 231.657 130.708 231.774L140.509 236.358C140.598 236.358 140.687 236.397 140.731 236.397Z" fill="#472938"/>
</svg>
