<svg width="310" height="539" viewBox="0 0 310 539" fill="none" xmlns="http://www.w3.org/2000/svg">
<rect width="310" height="539" rx="40" fill="#4477E8"/>
<g clip-path="url(#clip0_358_613)">
<path d="M213.868 305.618L176.25 268L213.868 230.381C214.589 229.652 214.993 228.667 214.993 227.642C214.993 226.616 214.589 225.632 213.868 224.902L196.098 207.131C195.371 206.405 194.386 205.997 193.358 205.997C192.33 205.997 191.345 206.405 190.618 207.131L153 244.75L115.381 207.131C114.655 206.405 113.669 205.997 112.642 205.997C111.614 205.997 110.629 206.405 109.902 207.131L92.1314 224.902C91.4049 225.629 90.9968 226.614 90.9968 227.642C90.9968 228.669 91.4049 229.655 92.1314 230.381L129.75 268L92.1314 305.618C91.4049 306.345 90.9968 307.33 90.9968 308.358C90.9968 309.386 91.4049 310.371 92.1314 311.098L109.902 328.868C110.629 329.595 111.614 330.003 112.642 330.003C113.669 330.003 114.655 329.595 115.381 328.868L153 291.25L190.618 328.868C191.345 329.595 192.33 330.003 193.358 330.003C194.386 330.003 195.371 329.595 196.098 328.868L213.868 311.098C214.595 310.371 215.003 309.386 215.003 308.358C215.003 307.33 214.595 306.345 213.868 305.618Z" fill="#FFFFFC"/>
</g>
<defs>
<clipPath id="clip0_358_613">
<rect width="124" height="124" fill="white" transform="translate(91 206)"/>
</clipPath>
</defs>
</svg>
