<svg width="310" height="539" viewBox="0 0 310 539" fill="none" xmlns="http://www.w3.org/2000/svg">
<rect width="310" height="539" rx="40" fill="#4477E8"/>
<path d="M185.067 202.375V212.625H203.216L186.024 230.081C179.88 225.412 172.391 222.882 164.691 222.875C155.165 222.875 146.271 226.667 139.537 233.448C136.208 236.756 133.566 240.697 131.762 245.041C129.959 249.385 129.03 254.046 129.031 258.754C129.031 263.461 129.96 268.122 131.765 272.466C133.569 276.809 136.213 280.749 139.542 284.057C143.974 288.516 149.251 291.719 155.14 293.344C155.72 292.898 156.373 292.431 156.892 291.909C159.027 289.724 160.561 287.018 161.344 284.057C155.798 283.371 150.641 280.832 146.699 276.846C141.89 272.013 139.221 265.597 139.221 258.75C139.221 251.903 141.896 245.497 146.709 240.659C151.508 235.805 157.885 233.125 164.691 233.125C171.496 233.125 177.869 235.816 182.673 240.659C185.048 243.026 186.934 245.844 188.219 248.949C189.504 252.055 190.164 255.386 190.161 258.75C190.161 263.183 188.913 267.309 186.819 271.081C187.308 273.725 187.614 276.503 187.614 279.25C187.614 281.809 187.401 284.32 186.977 286.784C187.996 285.948 188.902 285 189.845 284.057C196.579 277.272 200.348 268.334 200.348 258.75C200.348 250.909 197.781 243.457 193.186 237.286L210.536 219.995V238.25H220.724V202.375H185.067ZM153.866 244.656C153.286 245.102 152.634 245.568 152.114 246.091C149.913 248.315 148.477 251.011 147.662 253.948C153.214 254.665 158.283 257.105 162.307 261.154C167.121 265.986 169.795 272.403 169.795 279.245C169.795 286.087 167.121 292.498 162.307 297.336C157.498 302.195 151.121 304.875 144.315 304.875C137.51 304.875 131.137 302.184 126.334 297.341C123.955 294.976 122.069 292.158 120.783 289.052C119.498 285.947 118.839 282.614 118.845 279.25C118.845 274.817 120.093 270.691 122.187 266.919C121.681 264.225 121.415 261.491 121.392 258.75C121.392 256.194 121.605 253.683 122.029 251.216C121.01 252.052 120.109 253 119.161 253.948C112.437 260.718 108.658 269.666 108.658 279.25C108.658 287.091 111.225 294.543 115.82 300.713L107.231 309.359L97.0434 299.109L89.7081 306.315L99.896 316.565L89.7081 326.815L97.0434 334.195L107.231 323.945L117.419 334.195L124.576 326.815L114.388 316.565L122.987 307.924C129.125 312.601 136.615 315.129 144.315 315.125C153.841 315.125 162.735 311.332 169.469 304.552C176.203 297.782 179.973 288.834 179.973 279.25C179.973 269.666 176.203 260.728 169.464 253.943C165.032 249.484 159.755 246.281 153.866 244.656Z" fill="#FFFFFC"/>
</svg>
