<svg width="333" height="325" viewBox="0 0 333 325" fill="none" xmlns="http://www.w3.org/2000/svg">
<path fill-rule="evenodd" clip-rule="evenodd" d="M159.068 4.25662C183.268 -8.68864 212.726 10.6503 236.027 25.4653C259.331 40.2823 275.398 64.2943 291.216 88.2773C308.549 114.558 334.776 139.927 332.905 172.35C331.026 204.929 298.557 223.506 281.86 250.471C266.614 275.092 265.324 318.899 238.743 324.419C208.417 330.716 189.068 283.938 159.068 275.97C138.932 270.623 119.075 292.226 98.8575 287.268C76.3713 281.753 57.2408 265.685 41.5111 247.14C23.2549 225.615 -6.81937 200.389 1.38946 172.35C10.7613 140.339 52.8919 139.476 78.4269 121.046C91.7397 111.438 106.166 103.73 115.803 89.7744C134.047 63.3512 131.962 18.7558 159.068 4.25662Z" fill="#4477E8"/>
<g clip-path="url(#clip0_1161_974)">
<path d="M148.578 140.2C148.578 140.2 154.687 90.8882 153.308 72.8792C152.6 63.6421 148.1 61.5523 141.222 62.0791C134.343 62.6059 95.0087 83.372 95.0087 83.372L100.614 96.8063L133.326 86.5857C133.326 86.5857 129.993 105.771 129.224 109.415C128.455 113.059 126.846 117.968 125.564 122.367C124.936 124.535 124.061 127.345 124.061 128.706C124.079 131.92 148.578 140.2 148.578 140.2Z" fill="#D9C6BE"/>
<path d="M133.326 86.5858C137.888 85.7078 142.441 83.0297 143.874 80.896C143.138 83.2952 141.514 85.3284 139.329 86.5858C137.25 87.9175 135.047 89.0495 132.751 89.9663L133.326 86.5858Z" fill="#F28F8F"/>
<path d="M210.501 139.322C209.821 136.811 205.382 134.168 192.156 131.964C178.929 129.76 166.897 131.964 166.826 133.518C166.755 135.072 170.088 145.46 185.339 147.356C200.59 149.253 211.898 144.836 210.501 139.322Z" fill="#263238"/>
<path d="M170.716 160.668C170.716 160.668 162.096 105.139 163.333 93.8034C164.615 82.0901 169.089 76.6549 176.595 75.891C186.4 81.5457 191.625 95.059 197.894 108.379C204.162 121.699 210.952 150.271 211.315 163.925C211.677 177.579 200.802 187.308 188.487 189.082C176.171 190.855 170.716 160.668 170.716 160.668Z" fill="#D9C6BE"/>
<path d="M184.26 117.195C180.283 114.019 177.595 109.522 176.692 104.533L189.026 100.266L197.345 107.141L197.593 107.677C197.699 107.905 197.805 108.133 197.92 108.362C198.159 108.871 198.398 109.407 198.636 109.951C198.698 110.109 198.769 110.267 198.84 110.434C199.025 110.855 199.202 111.312 199.388 111.751L199.573 112.208C199.821 112.813 200.06 113.437 200.307 114.078C200.546 114.719 200.785 115.377 201.023 116.045C201.076 116.194 201.13 116.334 201.174 116.475L201.81 118.319C201.81 118.407 201.872 118.503 201.908 118.591C202.403 120.084 202.898 121.629 203.375 123.21L203.455 123.464C203.693 124.246 203.923 125.036 204.153 125.835C204.153 125.835 192.695 124.202 184.26 117.195Z" fill="#F28F8F"/>
<path d="M173.996 76.3652C178.682 74.5301 184.384 78.8238 187.399 80.7555C193.526 84.6541 230.986 113.648 239.722 120.444C241.614 121.585 243.541 122.683 245.504 123.719L235.213 139.7C234.367 137.403 233.045 135.309 231.331 133.553C221.995 126.933 203.923 123.324 192.288 118.828C183.235 115.316 181.343 113.349 178.293 108.212C175.959 104.147 167.533 79.4033 173.996 76.3652Z" fill="#D9C6BE"/>
<path d="M170.53 160.975L166.826 133.518C166.826 133.518 170.15 141.087 187.267 143.08C204.383 145.073 210.935 142.202 210.501 139.322C210.501 139.322 214.975 156.514 213.242 167.683C211.509 178.852 194.331 190.75 194.331 190.75L170.53 160.975Z" fill="#37474F"/>
<path opacity="0.15" d="M178.107 164.733C176.533 164.733 175.057 164.829 173.687 164.917L192.713 188.686H197.133C202.067 184.797 211.96 176.051 213.251 167.71C214.524 159.517 212.455 148.102 211.262 142.588C211.942 148.928 197.664 164.32 178.107 164.733Z" fill="black"/>
<path d="M263.796 100.485C257.607 99.344 254.734 103.778 252.453 107.44C250.172 111.101 246.352 117.818 244.646 118.951C242.94 120.084 241.994 118.951 239.562 120.769C237.131 122.586 235.354 126.037 236.105 127.293L237.874 130.348C236.854 130.237 235.823 130.366 234.863 130.725C233.903 131.083 233.041 131.661 232.348 132.412C229.696 135.046 231.075 135.485 232.569 136.978C234.063 138.47 237.573 145.214 241.092 147.049C241.092 147.049 250.57 144.23 257.439 133.553C264.309 122.876 263.796 100.485 263.796 100.485Z" fill="#E23823"/>
<path d="M243.046 148.462C242.683 148.398 242.338 148.26 242.032 148.056C241.727 147.853 241.467 147.588 241.27 147.279C241.073 146.97 240.942 146.624 240.887 146.262C240.833 145.901 240.854 145.531 240.951 145.179C241.998 141.886 243.571 138.782 245.61 135.985C247.988 132.631 252.444 126.327 253.196 122.876C253.947 119.425 255.565 109.758 258.209 105.71C260.852 101.662 263.566 99.3263 267.05 100.635C270.533 101.943 259.535 127.854 256.308 132.245C253.081 136.635 243.046 148.462 243.046 148.462Z" fill="#37474F"/>
<path d="M245.079 147.901C253.788 143.291 256.652 138.813 259.225 132.974C261.798 127.135 267.81 121.752 269.366 116.51C270.922 111.268 271.081 97.825 265.096 101.083C259.11 104.34 257.863 116.361 255.238 123.306C252.612 130.252 236.538 152.44 245.079 147.901Z" fill="#263238"/>
<path d="M192.739 162.099C196.718 161.493 204.366 163.126 211.306 172.75C218.759 183.084 220.147 201.12 215.47 202.604C215.47 202.604 204.631 201.339 197.187 197.467C189.742 193.595 177.232 167.437 192.739 162.099Z" fill="#263238"/>
<path d="M319.876 248.149C308.329 243.644 298.878 235.9 290.7 227.242C284.122 218.374 255.936 180.398 251.047 175.05C249.279 173.154 245.088 168.272 239.279 167.051C218.715 162.661 180.636 163.311 180.636 163.311L165.995 160.861L136.819 188.133C140.841 192.392 145.89 196.106 153.272 199.926C160.655 203.745 168.638 206.52 179.407 205.615C200.962 203.807 213.887 197.757 225.425 195.079C228.767 194.306 232.233 193.595 234.859 199.039C237.485 204.483 237.697 207.213 245.468 213C255.432 220.428 271.886 228.735 279.065 237.586C280.247 239.755 280.952 242.149 281.134 244.61C281.814 253.944 289.701 252.109 296.058 256.165C299.523 258.378 302.096 261.065 306.269 261.978C310.069 262.754 313.995 262.682 317.763 261.767C321.158 260.968 326.021 258.536 327.692 255.252C329.884 250.879 323.2 249.439 319.876 248.149Z" fill="#D9C6BE"/>
<path d="M319.876 248.149C308.329 243.644 298.878 235.9 290.7 227.242C284.122 218.374 255.936 180.398 251.047 175.05C249.279 173.154 245.088 168.272 239.279 167.051C218.715 162.661 180.636 163.311 180.636 163.311L165.995 160.861L136.819 188.133C140.841 192.392 145.89 196.106 153.272 199.926C160.655 203.745 168.638 206.52 179.407 205.615C200.962 203.807 213.887 197.757 225.425 195.079C228.767 194.306 232.233 193.595 234.859 199.039C237.485 204.483 237.697 207.213 245.468 213C255.432 220.428 271.886 228.735 279.065 237.586C280.247 239.755 280.952 242.149 281.134 244.61C281.814 253.944 289.701 252.109 296.058 256.165C299.523 258.378 302.096 261.065 306.269 261.978C310.069 262.754 313.995 262.682 317.763 261.767C321.158 260.968 326.021 258.536 327.692 255.252C329.884 250.879 323.2 249.439 319.876 248.149Z" fill="#D9C6BE"/>
<path d="M244.805 208.574C242.616 206.165 240.954 203.33 239.925 200.25C239.134 197.676 238.116 195.175 236.883 192.778C233.294 186.632 209.476 194.473 198.928 197.686C198.336 198.564 195.86 201.199 194.976 203.394C207.752 200.804 216.946 197.037 225.408 195.07C228.75 194.297 232.215 193.586 234.841 199.03C237.467 204.474 237.679 207.205 245.451 212.991C249.5 216.012 254.619 219.137 259.756 222.465C254.018 218.04 249.694 213.606 244.805 208.574Z" fill="#F28F8F"/>
<path d="M168.258 160.861C168.258 160.861 189.185 161.879 192.739 162.134C192.739 162.134 184.862 164.241 194.446 183.48C204.03 202.718 215.479 202.612 215.479 202.612C200.449 207.389 192.642 212.754 173.483 210.515C150.646 207.24 136.801 190.258 136.801 190.258L168.258 160.861Z" fill="#455A64"/>
<path opacity="0.15" d="M215.426 202.612C215.252 202.623 215.078 202.623 214.904 202.612C213.198 202.419 208.123 201.313 202.438 195.298C197.925 196.494 193.347 197.429 188.725 198.099C171.644 200.584 158.833 197.59 139.745 187.483L136.801 190.241C144.376 198.725 154.094 205.048 164.951 208.557C165.615 208.759 166.295 208.961 166.985 209.145C167.63 209.312 168.285 209.479 168.939 209.628L169.116 209.672C169.717 209.812 170.336 209.935 170.955 210.058L171.282 210.12C172.007 210.26 172.732 210.383 173.474 210.489C174.677 210.629 175.826 210.734 176.94 210.822C178.054 210.91 179.124 210.954 180.167 210.989H181.697C182.201 210.989 182.696 210.989 183.182 210.989C184.641 210.989 186.029 210.875 187.364 210.743C188.248 210.655 189.114 210.55 189.963 210.427C192.007 210.12 194.032 209.697 196.028 209.163C196.806 208.952 197.575 208.732 198.336 208.495C200.254 207.916 202.146 207.266 204.091 206.564L206.452 205.686C209.246 204.667 212.181 203.596 215.47 202.551L215.426 202.612Z" fill="black"/>
<path d="M98.2796 134.668C89.7744 137.601 81.7377 142.729 88.5543 157.735C98.2796 179.405 142.362 203.464 164.995 208.575C153.502 191.303 163.068 172.996 170.574 160.975L168.55 146.294C168.55 146.294 161.76 143.054 150.513 134.422C139.267 125.791 134.599 123.447 117.863 128.504C106.36 131.981 98.2796 134.668 98.2796 134.668Z" fill="#E23823"/>
<path opacity="0.05" d="M132.734 183.646C109.588 170.475 102.311 158.745 93.2315 147.479L87.2902 154.679C87.4493 155.145 87.6261 155.619 87.8206 156.11C87.8173 156.137 87.8173 156.163 87.8206 156.189C88.0151 156.69 88.2362 157.208 88.4749 157.735C92.7894 167.218 103.62 177.158 116.351 185.806C118.119 187.036 120.029 188.239 121.904 189.406C122.85 189.995 123.796 190.574 124.75 191.163C131.225 195.013 137.927 198.472 144.82 201.524C151.287 204.489 158.021 206.84 164.934 208.548C162.416 204.832 160.734 200.622 160 196.203C151.955 193.797 143.326 189.679 132.734 183.646Z" fill="black"/>
<path d="M91.8964 137.61C91.8964 137.61 63.3481 122.454 58.8302 120.409L83.8155 105.842L78.5108 92.1702C78.5108 92.1702 41.3777 105.28 34.3047 109.046C30.6003 111.04 29 112.682 29 115.509C29 120.224 33.5179 126.335 39.7774 131.63C53.0835 142.896 71.1372 153.388 88.7224 162.977C92.754 165.945 96.9447 169.676 96.9447 169.676C101.569 171.977 108.297 150.745 91.8964 137.61Z" fill="#D9C6BE"/>
<path d="M118.624 84.935C116.84 80.8235 113.486 77.584 109.297 75.9291C105.109 74.2742 100.43 74.3394 96.2907 76.1105C92.1509 77.8815 88.889 81.2132 87.2227 85.3727C85.5563 89.5322 85.622 94.1788 87.4052 98.2902C87.5202 98.5712 87.6616 98.8258 87.7943 99.0893L83.4797 108.414L77.1052 96.7448C77.1079 95.8257 76.7664 94.9383 76.1471 94.2552C75.5279 93.572 74.6751 93.1419 73.7544 93.0482C73.2875 93.0087 72.8173 93.0638 72.3725 93.2103C71.9277 93.3568 71.5176 93.5915 71.1669 93.9003C70.8163 94.2091 70.5326 94.5855 70.333 95.0065C70.1334 95.4276 70.022 95.8846 70.0057 96.3497L74.8772 96.7712C73.8083 97.4754 72.9888 98.495 72.5343 99.6863C71.3761 102.689 75.4077 108.809 80.8097 114.183C80.8097 114.183 88.4573 124.904 90.314 126.406C91.5103 127.31 93.01 127.725 94.5047 127.565L94.9645 106.491C98.0698 108.156 101.62 108.818 105.122 108.387C108.624 107.955 111.903 106.451 114.505 104.084C117.107 101.716 118.901 98.6028 119.639 95.1759C120.377 91.7489 120.022 88.1787 118.624 84.9613V84.935Z" fill="#263238"/>
<path d="M87.237 112.05C86.5297 113.024 84.3724 111.786 82.666 111.066C80.9597 110.346 76.3888 110.32 76.212 115.158C76.0351 119.996 82.0206 123.938 85.4599 123.578C91.3835 122.973 90.7646 119.311 90.7646 119.311L99.4643 138.444C109.534 143.923 128.278 135.301 117.032 129.883L114.547 124.202C116.697 123.628 118.774 122.812 120.736 121.77C124.273 119.539 125.431 115.5 124.803 110.873C123.804 103.453 122.151 97.7986 114.954 85.4092C106.997 71.8695 90.1988 78.8765 83.6386 88.3858C77.0784 97.8952 87.237 112.05 87.237 112.05Z" fill="#D9C6BE"/>
<path d="M87.9355 113.674C87.4581 113.893 84.3195 111.663 82.6308 111.092C80.3409 110.311 76.6188 95.9195 76.6188 95.9195C76.6188 95.9195 73.5774 93.2414 75.2484 88.4121C76.6188 84.452 81.6759 81.8003 85.177 80.0442C91.4897 76.8744 98.5538 73.2656 101.648 66.6274C101.896 66.1006 102.249 65.5035 102.833 65.4948C103.014 65.5108 103.19 65.5626 103.351 65.647C103.512 65.7314 103.655 65.8468 103.77 65.9865C105.228 67.6116 106.05 69.7022 106.087 71.8782C106.087 72.0802 106.148 72.3348 106.352 72.3963C106.555 72.4578 106.705 72.2909 106.829 72.1417C107.471 71.3608 107.96 70.4673 108.27 69.5075C108.695 68.1992 110.923 71.527 111.082 71.9836C111.603 73.4281 111.828 74.9617 111.743 76.4939C111.658 78.0261 111.265 79.5258 110.587 80.9047C109.207 83.653 106.369 85.3564 103.77 86.8579C97.9791 90.2121 88.077 93.4082 86.6977 93.7858C84.8234 94.3039 85.1859 96.1741 86.2468 101.241C87.2194 105.719 89.5358 112.927 87.9355 113.674Z" fill="#263238"/>
<path d="M114.548 124.202C114.548 124.202 104.203 126.371 100.525 126.098C98.3677 125.943 96.3084 125.141 94.6195 123.798C95.8199 125.346 97.3237 126.636 99.0401 127.591C102.435 129.435 115.52 126.493 115.52 126.493L114.548 124.202Z" fill="#F28F8F"/>
<path d="M98.3857 97.4649L95.309 100.801C94.8658 100.373 94.6064 99.7917 94.5849 99.1781C94.5635 98.5644 94.7818 97.9663 95.1941 97.5088C95.3987 97.2943 95.6445 97.1226 95.917 97.004C96.1895 96.8854 96.4831 96.8222 96.7806 96.8181C97.0781 96.814 97.3734 96.8691 97.649 96.9802C97.9247 97.0913 98.1752 97.2561 98.3857 97.4649Z" fill="#263238"/>
<path d="M108.297 114.508L112.85 114.297C112.878 114.595 112.845 114.895 112.753 115.179C112.662 115.464 112.513 115.727 112.317 115.953C112.12 116.18 111.88 116.364 111.61 116.496C111.34 116.628 111.046 116.704 110.746 116.721C110.129 116.738 109.529 116.517 109.072 116.105C108.616 115.692 108.338 115.12 108.297 114.508Z" fill="#F4F4F4"/>
<path d="M117.112 92.1702L112.691 91.0463C112.751 90.7539 112.87 90.4767 113.042 90.2314C113.213 89.9862 113.432 89.778 113.687 89.6196C113.942 89.4611 114.226 89.3557 114.523 89.3096C114.82 89.2636 115.123 89.2779 115.414 89.3517C116.005 89.5186 116.51 89.9031 116.825 90.4269C117.141 90.9506 117.243 91.5741 117.112 92.1702Z" fill="#263238"/>
<path d="M107.678 99.0454L110.693 109.819L115.998 106.623L107.678 99.0454Z" fill="#F28F8F"/>
<path d="M99.2876 103.875C99.2894 104.263 99.407 104.643 99.6257 104.965C99.8443 105.287 100.154 105.538 100.516 105.686C100.878 105.833 101.276 105.871 101.66 105.794C102.043 105.717 102.395 105.529 102.672 105.254C102.948 104.978 103.135 104.628 103.211 104.247C103.287 103.865 103.247 103.47 103.097 103.111C102.947 102.752 102.693 102.446 102.367 102.23C102.042 102.014 101.659 101.899 101.268 101.899C101.007 101.899 100.749 101.95 100.508 102.05C100.267 102.149 100.049 102.295 99.8645 102.478C99.6805 102.662 99.5348 102.88 99.4358 103.119C99.3368 103.359 99.2865 103.616 99.2876 103.875Z" fill="#263238"/>
<path d="M113.619 98.2991C113.618 98.6767 113.729 99.0463 113.939 99.361C114.149 99.6756 114.449 99.9212 114.8 100.067C115.15 100.212 115.537 100.25 115.91 100.177C116.283 100.104 116.626 99.9222 116.894 99.6552C117.163 99.3882 117.346 99.0479 117.42 98.6774C117.494 98.307 117.455 97.9232 117.309 97.5746C117.162 97.2261 116.915 96.9286 116.598 96.7199C116.281 96.5112 115.909 96.4007 115.529 96.4025C115.023 96.4048 114.539 96.6054 114.181 96.9605C113.824 97.3157 113.622 97.7968 113.619 98.2991Z" fill="#263238"/>
<path d="M279.984 246.568C279.233 247.077 280.4 250.291 281.081 251.081C282.499 252.45 284.25 253.431 286.164 253.926C289.645 254.985 292.898 256.676 295.757 258.914C299.284 261.749 303.385 263.795 307.781 264.911C312.997 266.061 319.027 264.595 324.288 261.495C329.805 258.255 329.292 255.147 328.54 253.075L279.984 246.568Z" fill="#37474F"/>
<path d="M291.92 228.533C293.688 230.394 303.307 239.842 310.69 242.248C316.569 244.162 324.217 245.989 327.568 249.545C331.051 253.25 325.861 257.992 318.726 260.714C311.282 263.541 306.225 261.258 301.283 258.791C297.808 257.035 292.689 253.522 290.116 252.109C287.544 250.695 282.778 249.922 280.789 247.824C279.693 246.665 278.906 243.433 278.428 240.597C277.995 237.963 276.245 235.584 277.137 235.443L278.587 237.015C285.307 238.244 292.309 232.08 291.92 228.533Z" fill="#E23823"/>
<path d="M58.8304 120.409C54.5934 122.682 50.0178 124.268 45.2768 125.106C45.2768 125.106 52.783 126.977 61.7126 121.84L58.8304 120.409Z" fill="#F28F8F"/>
</g>
<defs>
<clipPath id="clip0_1161_974">
<rect width="300" height="203.306" fill="white" transform="translate(29 62)"/>
</clipPath>
</defs>
</svg>
