<svg width="24" height="24" viewBox="0 0 24 24" fill="none" xmlns="http://www.w3.org/2000/svg">
<g clip-path="url(#clip0_400_506)">
<path d="M23.781 19.2811L16.5 12.0001L23.781 4.7191C23.9205 4.57788 23.9987 4.38736 23.9987 4.18885C23.9987 3.99034 23.9205 3.79982 23.781 3.6586L20.3415 0.219102C20.2008 0.0784983 20.0101 -0.000488281 19.8112 -0.000488281C19.6124 -0.000488281 19.4216 0.0784983 19.281 0.219102L12 7.5001L4.71898 0.219102C4.57833 0.0784983 4.3876 -0.000488281 4.18873 -0.000488281C3.98986 -0.000488281 3.79912 0.0784983 3.65848 0.219102L0.218979 3.6586C0.0783762 3.79925 -0.000610352 3.98998 -0.000610352 4.18885C-0.000610352 4.38772 0.0783762 4.57846 0.218979 4.7191L7.49998 12.0001L0.218979 19.2811C0.0783762 19.4217 -0.000610352 19.6125 -0.000610352 19.8114C-0.000610352 20.0102 0.0783762 20.201 0.218979 20.3416L3.65848 23.7811C3.79912 23.9217 3.98986 24.0007 4.18873 24.0007C4.3876 24.0007 4.57833 23.9217 4.71898 23.7811L12 16.5001L19.281 23.7811C19.4216 23.9217 19.6124 24.0007 19.8112 24.0007C20.0101 24.0007 20.2008 23.9217 20.3415 23.7811L23.781 20.3416C23.9216 20.201 24.0006 20.0102 24.0006 19.8114C24.0006 19.6125 23.9216 19.4217 23.781 19.2811Z" fill="#4477E8"/>
</g>
<defs>
<clipPath id="clip0_400_506">
<rect width="24" height="24" fill="white"/>
</clipPath>
</defs>
</svg>
