<svg width="62" height="32" viewBox="0 0 62 32" fill="none" xmlns="http://www.w3.org/2000/svg">
<rect x="19.5625" y="7.77417" width="6.53571" height="24.226" rx="3.26786" fill="#132945"/>
<rect x="35.9018" y="7.77417" width="6.53571" height="24.226" rx="3.26786" fill="#132945"/>
<path d="M27.7321 3.26786C27.7321 1.46307 29.1952 0 31 0C32.8048 0 34.2678 1.46307 34.2678 3.26786V20.9581C34.2678 22.7629 32.8048 24.226 31 24.226C29.1952 24.226 27.7321 22.7629 27.7321 20.9581V3.26786Z" fill="#132945"/>
<rect x="44.6161" y="10.6667" width="5.17411" height="15.548" fill="#E23823"/>
<rect x="12.2098" y="11.0283" width="5.17411" height="15.548" fill="#E23823"/>
<rect x="51.6964" y="13.9209" width="5.17411" height="9.40113" fill="#E23823"/>
<rect x="5.12946" y="13.9209" width="5.17411" height="9.40113" fill="#E23823"/>
<rect x="58.5045" y="16.8135" width="2.99554" height="3.9774" fill="#E23823"/>
<rect x="0.5" y="16.8135" width="2.99554" height="3.9774" fill="#E23823"/>
</svg>