<svg width="24" height="24" viewBox="0 0 24 24" fill="none" xmlns="http://www.w3.org/2000/svg">
<path d="M23.7806 19.2811L16.4996 12.0001L23.7806 4.7191C23.9201 4.57788 23.9984 4.38736 23.9984 4.18885C23.9984 3.99034 23.9201 3.79982 23.7806 3.6586L20.3411 0.219102C20.2005 0.0784982 20.0097 -0.000488281 19.8109 -0.000488281C19.612 -0.000488281 19.4213 0.0784982 19.2806 0.219102L11.9996 7.5001L4.71861 0.219102C4.57797 0.0784982 4.38724 -0.000488281 4.18836 -0.000488281C3.98949 -0.000488281 3.79876 0.0784982 3.65811 0.219102L0.218613 3.6586C0.07801 3.79925 -0.000976563 3.98998 -0.000976562 4.18885C-0.000976563 4.38772 0.07801 4.57846 0.218613 4.7191L7.49961 12.0001L0.218613 19.2811C0.07801 19.4217 -0.000976562 19.6125 -0.000976562 19.8114C-0.000976562 20.0102 0.07801 20.201 0.218613 20.3416L3.65811 23.7811C3.79876 23.9217 3.98949 24.0007 4.18836 24.0007C4.38724 24.0007 4.57797 23.9217 4.71861 23.7811L11.9996 16.5001L19.2806 23.7811C19.4213 23.9217 19.612 24.0007 19.8109 24.0007C20.0097 24.0007 20.2005 23.9217 20.3411 23.7811L23.7806 20.3416C23.9212 20.201 24.0002 20.0102 24.0002 19.8114C24.0002 19.6125 23.9212 19.4217 23.7806 19.2811Z" fill="#FFFFFC"/>
</svg>
